<svg width="80" height="80" viewBox="0 0 80 80" fill="none" xmlns="http://www.w3.org/2000/svg">
<path d="M0.5 40C0.5 39.131 0.528057 38.2686 0.583305 37.4136L0.0843456 37.3814C0.198264 35.6185 0.426377 33.8868 0.761362 32.1935L1.25186 32.2906C1.58938 30.5844 2.03679 28.9178 2.58638 27.2984L2.11291 27.1377C2.67725 25.4748 3.348 23.8611 4.11704 22.3046L4.56531 22.5261C5.33169 20.975 6.19695 19.4814 7.15287 18.0535L6.73739 17.7754C7.71032 16.3221 8.77598 14.9361 9.92588 13.626L10.3017 13.9558C11.439 12.6599 12.6599 11.439 13.9558 10.3017L13.626 9.92587C14.9362 8.77597 16.3221 7.71032 17.7754 6.73738L18.0535 7.15287C19.4814 6.19694 20.975 5.33169 22.5261 4.56531L22.3046 4.11704C23.8611 3.348 25.4748 2.67725 27.1377 2.1129L27.2984 2.58638C28.9178 2.03679 30.5844 1.58938 32.2906 1.25186L32.1935 0.761362C33.8868 0.426377 35.6185 0.198265 37.3814 0.0843459L37.4136 0.583305C38.2686 0.528057 39.131 0.5 40 0.5C40.869 0.5 41.7314 0.528057 42.5864 0.583305L42.6186 0.0843456C44.3815 0.198264 46.1132 0.426377 47.8065 0.761362L47.7094 1.25186C49.4156 1.58938 51.0822 2.03679 52.7016 2.58638L52.8623 2.11291C54.5252 2.67725 56.1389 3.348 57.6954 4.11704L57.4739 4.56531C59.025 5.33169 60.5186 6.19694 61.9465 7.15287L62.2246 6.73738C63.6779 7.71032 65.0639 8.77598 66.374 9.92588L66.0442 10.3017C67.3401 11.439 68.561 12.6599 69.6983 13.9558L70.0741 13.626C71.224 14.9362 72.2897 16.3221 73.2626 17.7754L72.8471 18.0535C73.8031 19.4814 74.6683 20.975 75.4347 22.5261L75.883 22.3046C76.652 23.8611 77.3227 25.4748 77.8871 27.1377L77.4136 27.2984C77.9632 28.9178 78.4106 30.5844 78.7481 32.2906L79.2386 32.1935C79.5736 33.8868 79.8017 35.6185 79.9157 37.3814L79.4167 37.4136C79.4719 38.2686 79.5 39.131 79.5 40C79.5 40.869 79.4719 41.7314 79.4167 42.5864L79.9157 42.6186C79.8017 44.3815 79.5736 46.1132 79.2386 47.8065L78.7481 47.7094C78.4106 49.4156 77.9632 51.0822 77.4136 52.7016L77.8871 52.8623C77.3227 54.5252 76.652 56.1389 75.883 57.6954L75.4347 57.4739C74.6683 59.025 73.8031 60.5186 72.8471 61.9465L73.2626 62.2246C72.2897 63.6779 71.224 65.0639 70.0741 66.374L69.6983 66.0442C68.561 67.3401 67.3401 68.561 66.0442 69.6983L66.374 70.0741C65.0638 71.224 63.6779 72.2897 62.2246 73.2626L61.9465 72.8471C60.5186 73.8031 59.025 74.6683 57.4739 75.4347L57.6954 75.883C56.1389 76.652 54.5252 77.3227 52.8623 77.8871L52.7016 77.4136C51.0822 77.9632 49.4156 78.4106 47.7094 78.7481L47.8065 79.2386C46.1132 79.5736 44.3815 79.8017 42.6186 79.9157L42.5864 79.4167C41.7314 79.4719 40.869 79.5 40 79.5C39.131 79.5 38.2686 79.4719 37.4136 79.4167L37.3814 79.9157C35.6185 79.8017 33.8868 79.5736 32.1935 79.2386L32.2906 78.7481C30.5844 78.4106 28.9178 77.9632 27.2984 77.4136L27.1377 77.8871C25.4748 77.3227 23.8611 76.652 22.3046 75.883L22.5261 75.4347C20.975 74.6683 19.4814 73.8031 18.0535 72.8471L17.7754 73.2626C16.3221 72.2897 14.9361 71.224 13.626 70.0741L13.9558 69.6983C12.6599 68.561 11.439 67.3401 10.3017 66.0442L9.92587 66.374C8.77597 65.0638 7.71032 63.6779 6.73738 62.2246L7.15287 61.9465C6.19694 60.5186 5.33169 59.025 4.56531 57.4739L4.11704 57.6954C3.348 56.1389 2.67725 54.5252 2.1129 52.8623L2.58638 52.7016C2.03679 51.0822 1.58938 49.4156 1.25186 47.7094L0.761363 47.8065C0.426378 46.1132 0.198265 44.3815 0.0843459 42.6186L0.583305 42.5864C0.528057 41.7314 0.5 40.869 0.5 40Z" fill="white" stroke="#AC9D9D" stroke-dasharray="5 5"/>
<path d="M22.8164 34.6094H18.9434L18.0645 37H17.3086L20.5371 28.4688H21.2227L24.4512 37H23.7012L22.8164 34.6094ZM19.166 33.9941H22.5879L20.877 29.3477L19.166 33.9941ZM25.2656 33.7715C25.2656 32.7871 25.4844 32.0039 25.9219 31.4219C26.3633 30.8359 26.9609 30.543 27.7148 30.543C28.5703 30.543 29.2227 30.8809 29.6719 31.5566V28H30.3691V37H29.7129L29.6836 36.1562C29.2344 36.7969 28.5742 37.1172 27.7031 37.1172C26.9727 37.1172 26.3828 36.8242 25.9336 36.2383C25.4883 35.6484 25.2656 34.8535 25.2656 33.8535V33.7715ZM25.9746 33.8945C25.9746 34.7031 26.1367 35.3418 26.4609 35.8105C26.7852 36.2754 27.2422 36.5078 27.832 36.5078C28.6953 36.5078 29.3086 36.127 29.6719 35.3652V32.3887C29.3086 31.5645 28.6992 31.1523 27.8438 31.1523C27.2539 31.1523 26.7949 31.3848 26.4668 31.8496C26.1387 32.3105 25.9746 32.9922 25.9746 33.8945ZM31.9336 33.7715C31.9336 32.7871 32.1523 32.0039 32.5898 31.4219C33.0312 30.8359 33.6289 30.543 34.3828 30.543C35.2383 30.543 35.8906 30.8809 36.3398 31.5566V28H37.0371V37H36.3809L36.3516 36.1562C35.9023 36.7969 35.2422 37.1172 34.3711 37.1172C33.6406 37.1172 33.0508 36.8242 32.6016 36.2383C32.1562 35.6484 31.9336 34.8535 31.9336 33.8535V33.7715ZM32.6426 33.8945C32.6426 34.7031 32.8047 35.3418 33.1289 35.8105C33.4531 36.2754 33.9102 36.5078 34.5 36.5078C35.3633 36.5078 35.9766 36.127 36.3398 35.3652V32.3887C35.9766 31.5645 35.3672 31.1523 34.5117 31.1523C33.9219 31.1523 33.4629 31.3848 33.1348 31.8496C32.8066 32.3105 32.6426 32.9922 32.6426 33.8945ZM43.8105 35.9922L45.6621 30.6602H46.418L43.7109 38.0781L43.5703 38.4062C43.2227 39.1758 42.6855 39.5605 41.959 39.5605C41.791 39.5605 41.6113 39.5332 41.4199 39.4785L41.4141 38.8984L41.7773 38.9336C42.1211 38.9336 42.3984 38.8477 42.6094 38.6758C42.8242 38.5078 43.0059 38.2168 43.1543 37.8027L43.4648 36.9473L41.0742 30.6602H41.8418L43.8105 35.9922ZM47.0273 33.7363C47.0273 33.127 47.1445 32.5781 47.3789 32.0898C47.6172 31.6016 47.9512 31.2227 48.3809 30.9531C48.8145 30.6797 49.3047 30.543 49.8516 30.543C50.6953 30.543 51.3789 30.8398 51.9023 31.4336C52.4258 32.0234 52.6875 32.8066 52.6875 33.7832V33.9297C52.6875 34.543 52.5684 35.0957 52.3301 35.5879C52.0957 36.0762 51.7637 36.4531 51.334 36.7188C50.9043 36.9844 50.4141 37.1172 49.8633 37.1172C49.0234 37.1172 48.3398 36.8223 47.8125 36.2324C47.2891 35.6387 47.0273 34.8535 47.0273 33.877V33.7363ZM47.7305 33.9297C47.7305 34.6875 47.9258 35.3105 48.3164 35.7988C48.7109 36.2832 49.2266 36.5254 49.8633 36.5254C50.4961 36.5254 51.0078 36.2832 51.3984 35.7988C51.793 35.3105 51.9902 34.668 51.9902 33.8711V33.7363C51.9902 33.252 51.9004 32.8086 51.7207 32.4062C51.541 32.0039 51.2891 31.6934 50.9648 31.4746C50.6406 31.252 50.2695 31.1406 49.8516 31.1406C49.2266 31.1406 48.7168 31.3867 48.3223 31.8789C47.9277 32.3672 47.7305 33.0078 47.7305 33.8008V33.9297ZM58.2188 36.1973C57.7969 36.8105 57.123 37.1172 56.1973 37.1172C55.5215 37.1172 55.0078 36.9219 54.6562 36.5312C54.3047 36.1367 54.125 35.5547 54.1172 34.7852V30.6602H54.8145V34.6973C54.8145 35.9043 55.3027 36.5078 56.2793 36.5078C57.2949 36.5078 57.9375 36.0879 58.207 35.248V30.6602H58.9102V37H58.2305L58.2188 36.1973ZM63.668 31.2578C63.5195 31.2305 63.3613 31.2168 63.1934 31.2168C62.7559 31.2168 62.3848 31.3398 62.0801 31.5859C61.7793 31.8281 61.5645 32.1816 61.4355 32.6465V37H60.7383V30.6602H61.4238L61.4355 31.668C61.8066 30.918 62.4023 30.543 63.2227 30.543C63.418 30.543 63.5723 30.5684 63.6855 30.6191L63.668 31.2578ZM26.6719 44.6602L26.6953 45.6914C26.9297 45.3086 27.2227 45.0215 27.5742 44.8301C27.9258 44.6387 28.3164 44.543 28.7461 44.543C29.7461 44.543 30.3809 44.9531 30.6504 45.7734C30.877 45.3789 31.1797 45.0762 31.5586 44.8652C31.9375 44.6504 32.3555 44.543 32.8125 44.543C34.1719 44.543 34.8652 45.2852 34.8926 46.7695V51H34.1895V46.8223C34.1855 46.2559 34.0625 45.8359 33.8203 45.5625C33.582 45.2891 33.1914 45.1523 32.6484 45.1523C32.1445 45.1602 31.7188 45.3242 31.3711 45.6445C31.0234 45.9609 30.8301 46.3477 30.791 46.8047V51H30.0879V46.7695C30.084 46.2266 29.9551 45.8223 29.7012 45.5566C29.4512 45.2871 29.0645 45.1523 28.541 45.1523C28.0996 45.1523 27.7207 45.2793 27.4043 45.5332C27.0879 45.7832 26.8535 46.1562 26.7012 46.6523V51H25.998V44.6602H26.6719ZM36.2871 47.7363C36.2871 47.127 36.4043 46.5781 36.6387 46.0898C36.877 45.6016 37.2109 45.2227 37.6406 44.9531C38.0742 44.6797 38.5645 44.543 39.1113 44.543C39.9551 44.543 40.6387 44.8398 41.1621 45.4336C41.6855 46.0234 41.9473 46.8066 41.9473 47.7832V47.9297C41.9473 48.543 41.8281 49.0957 41.5898 49.5879C41.3555 50.0762 41.0234 50.4531 40.5938 50.7188C40.1641 50.9844 39.6738 51.1172 39.123 51.1172C38.2832 51.1172 37.5996 50.8223 37.0723 50.2324C36.5488 49.6387 36.2871 48.8535 36.2871 47.877V47.7363ZM36.9902 47.9297C36.9902 48.6875 37.1855 49.3105 37.5762 49.7988C37.9707 50.2832 38.4863 50.5254 39.123 50.5254C39.7559 50.5254 40.2676 50.2832 40.6582 49.7988C41.0527 49.3105 41.25 48.668 41.25 47.8711V47.7363C41.25 47.252 41.1602 46.8086 40.9805 46.4062C40.8008 46.0039 40.5488 45.6934 40.2246 45.4746C39.9004 45.252 39.5293 45.1406 39.1113 45.1406C38.4863 45.1406 37.9766 45.3867 37.582 45.8789C37.1875 46.3672 36.9902 47.0078 36.9902 47.8008V47.9297ZM43.0137 47.7363C43.0137 47.127 43.1309 46.5781 43.3652 46.0898C43.6035 45.6016 43.9375 45.2227 44.3672 44.9531C44.8008 44.6797 45.291 44.543 45.8379 44.543C46.6816 44.543 47.3652 44.8398 47.8887 45.4336C48.4121 46.0234 48.6738 46.8066 48.6738 47.7832V47.9297C48.6738 48.543 48.5547 49.0957 48.3164 49.5879C48.082 50.0762 47.75 50.4531 47.3203 50.7188C46.8906 50.9844 46.4004 51.1172 45.8496 51.1172C45.0098 51.1172 44.3262 50.8223 43.7988 50.2324C43.2754 49.6387 43.0137 48.8535 43.0137 47.877V47.7363ZM43.7168 47.9297C43.7168 48.6875 43.9121 49.3105 44.3027 49.7988C44.6973 50.2832 45.2129 50.5254 45.8496 50.5254C46.4824 50.5254 46.9941 50.2832 47.3848 49.7988C47.7793 49.3105 47.9766 48.668 47.9766 47.8711V47.7363C47.9766 47.252 47.8867 46.8086 47.707 46.4062C47.5273 46.0039 47.2754 45.6934 46.9512 45.4746C46.627 45.252 46.2559 45.1406 45.8379 45.1406C45.2129 45.1406 44.7031 45.3867 44.3086 45.8789C43.9141 46.3672 43.7168 47.0078 43.7168 47.8008V47.9297ZM49.8457 47.7715C49.8457 46.7871 50.0645 46.0039 50.502 45.4219C50.9434 44.8359 51.541 44.543 52.2949 44.543C53.1504 44.543 53.8027 44.8809 54.252 45.5566V42H54.9492V51H54.293L54.2637 50.1562C53.8145 50.7969 53.1543 51.1172 52.2832 51.1172C51.5527 51.1172 50.9629 50.8242 50.5137 50.2383C50.0684 49.6484 49.8457 48.8535 49.8457 47.8535V47.7715ZM50.5547 47.8945C50.5547 48.7031 50.7168 49.3418 51.041 49.8105C51.3652 50.2754 51.8223 50.5078 52.4121 50.5078C53.2754 50.5078 53.8887 50.127 54.252 49.3652V46.3887C53.8887 45.5645 53.2793 45.1523 52.4238 45.1523C51.834 45.1523 51.375 45.3848 51.0469 45.8496C50.7188 46.3105 50.5547 46.9922 50.5547 47.8945Z" fill="#626262"/>
</svg>
