<svg width="28" height="28" viewBox="0 0 28 28" fill="none" xmlns="http://www.w3.org/2000/svg">
<path d="M0 27.0435C0 27.5718 0.428259 28 0.956522 28H21.0435C21.5717 28 22 27.5718 22 27.0435V12.6957H0V27.0435Z" fill="#C5BEBE"/>
<path d="M21.0435 7.91309H0.956522C0.428259 7.91309 0 8.34132 0 8.86961V12.6957H22V8.86961C22 8.34132 21.5717 7.91309 21.0435 7.91309Z" fill="#D93954"/>
<path d="M4.30444 10.3043V6.47826C4.30444 6.21413 4.51857 6 4.7827 6H5.73923C6.00336 6 6.21749 6.21413 6.21749 6.47826V10.3043C6.21749 10.5685 6.00336 10.7826 5.73923 10.7826H4.7827C4.51857 10.7826 4.30444 10.5685 4.30444 10.3043Z" fill="#444444"/>
<path d="M15.7827 10.3043V6.47826C15.7827 6.21413 15.9968 6 16.261 6H17.2175C17.4816 6 17.6958 6.21413 17.6958 6.47826V10.3043C17.6958 10.5685 17.4816 10.7826 17.2175 10.7826H16.261C15.9968 10.7826 15.7827 10.5685 15.7827 10.3043Z" fill="#444444"/>
<path d="M10.636 24.0721H5.43272V22.9775C6.81524 21.5799 7.99586 20.4128 8.38565 19.91C9.04691 19.0569 8.92908 18.3306 8.6173 18.0542C8.00165 17.5084 6.97467 18.0139 6.26768 18.599L5.41235 17.5858C6.08363 17.014 6.74678 16.5217 8.07 16.5217C9.44754 16.5217 10.4273 17.3162 10.4273 18.5379C10.4273 19.2758 10.1495 19.8487 9.68647 20.4267C9.29115 20.9202 7.39286 22.7483 7.39286 22.7483H10.636V24.0721H10.636Z" fill="#F3F1F1"/>
<path d="M11.3335 20.9104C11.3335 19.4373 11.6449 18.341 12.2677 17.6215C12.8906 16.9019 13.8231 16.5421 15.0654 16.5421C15.4897 16.5421 15.8223 16.5676 16.0633 16.6185V17.876C15.7612 17.8081 15.4625 17.7742 15.1672 17.7742C14.3047 17.7742 13.4848 17.9801 13.0798 18.7415C12.9101 19.0606 12.81 19.5137 12.7794 20.1009C12.78 20.1009 13.3041 19.2354 14.4595 19.2354C15.8645 19.2354 16.5877 20.1992 16.5877 21.5926C16.5877 23.1572 15.671 24.1739 14.0522 24.1739C12.2418 24.1739 11.3335 22.8069 11.3335 20.9104ZM14.0217 22.9164C14.7605 22.9164 15.0654 22.3617 15.0654 21.613C15.0654 20.9144 14.7538 20.442 14.0522 20.442C13.3824 20.442 12.8965 20.9485 12.8965 21.4755C12.8965 22.2024 13.3054 22.9164 14.0217 22.9164Z" fill="#F3F1F1"/>
</svg>
