<svg width="42" height="30" viewBox="0 0 42 30" fill="none" xmlns="http://www.w3.org/2000/svg">
<circle cx="28" cy="11" r="10" fill="#F1DFE2"/>
<path d="M11 24.1304C11 24.6107 11.3893 25 11.8696 25H30.1304C30.6107 25 31 24.6107 31 24.1304V11.0869H11V24.1304Z" fill="#C5BEBE"/>
<path d="M30.1304 6.73914H11.8696C11.3893 6.73914 11 7.12844 11 7.6087V11.087H31V7.6087C31 7.12844 30.6107 6.73914 30.1304 6.73914Z" fill="#D93954"/>
<path d="M14.9131 8.91304V5.43478C14.9131 5.19466 15.1077 5 15.3479 5H16.2174C16.4576 5 16.6522 5.19466 16.6522 5.43478V8.91304C16.6522 9.15317 16.4576 9.34783 16.2174 9.34783H15.3479C15.1077 9.34783 14.9131 9.15317 14.9131 8.91304Z" fill="#444444"/>
<path d="M25.3478 8.91304V5.43478C25.3478 5.19466 25.5424 5 25.7826 5H26.6521C26.8922 5 27.0869 5.19466 27.0869 5.43478V8.91304C27.0869 9.15317 26.8922 9.34783 26.6521 9.34783H25.7826C25.5424 9.34783 25.3478 9.15317 25.3478 8.91304Z" fill="#444444"/>
<path d="M20.6692 21.4292H15.9389V20.4341C17.1958 19.1635 18.269 18.1026 18.6234 17.6454C19.2246 16.87 19.1174 16.2097 18.834 15.9584C18.2743 15.4622 17.3407 15.9217 16.698 16.4536L15.9204 15.5326C16.5307 15.0127 17.1335 14.5652 18.3364 14.5652C19.5888 14.5652 20.4794 15.2875 20.4794 16.3981C20.4794 17.0689 20.2269 17.5898 19.806 18.1152C19.4466 18.5638 17.7209 20.2258 17.7209 20.2258H20.6692V21.4292H20.6692Z" fill="#F3F1F1"/>
<path d="M21.3032 18.5549C21.3032 17.2158 21.5863 16.2191 22.1525 15.565C22.7188 14.9108 23.5665 14.5837 24.6959 14.5837C25.0816 14.5837 25.3839 14.6069 25.603 14.6532V15.7964C25.3284 15.7347 25.0569 15.7038 24.7884 15.7038C24.0043 15.7038 23.259 15.891 22.8908 16.5832C22.7365 16.8733 22.6455 17.2852 22.6177 17.819C22.6183 17.819 23.0946 17.0322 24.1451 17.0322C25.4223 17.0322 26.0798 17.9084 26.0798 19.1751C26.0798 20.5975 25.2464 21.5217 23.7748 21.5217C22.129 21.5217 21.3032 20.279 21.3032 18.5549ZM23.747 20.3785C24.4187 20.3785 24.6959 19.8742 24.6959 19.1936C24.6959 18.5586 24.4126 18.1291 23.7748 18.1291C23.1659 18.1291 22.7241 18.5896 22.7241 19.0687C22.7241 19.7295 23.0959 20.3785 23.747 20.3785Z" fill="#F3F1F1"/>
</svg>
