<svg width="40" height="40" viewBox="0 0 40 40" fill="none" xmlns="http://www.w3.org/2000/svg">
<circle cx="26" cy="17" r="10" fill="#F1DFE2"/>
<g clip-path="url(#clip0)">
<path d="M26.125 18.125C27.6207 18.125 28.8333 16.9125 28.8333 15.4167C28.8333 13.9209 27.6207 12.7084 26.125 12.7084C24.6292 12.7084 23.4166 13.9209 23.4166 15.4167C23.4166 16.9125 24.6292 18.125 26.125 18.125Z" fill="#D0C7C7"/>
<path d="M9.87496 18.125C11.3707 18.125 12.5833 16.9125 12.5833 15.4167C12.5833 13.9209 11.3707 12.7084 9.87496 12.7084C8.37919 12.7084 7.16663 13.9209 7.16663 15.4167C7.16663 16.9125 8.37919 18.125 9.87496 18.125Z" fill="#AC9D9D"/>
<path fill-rule="evenodd" clip-rule="evenodd" d="M24.4982 19.2084C23.0034 19.2084 21.7916 20.4161 21.7916 21.9188V25.5977C21.7916 25.8981 22.0176 26.2321 22.2969 26.3438L23.4166 26.7917L23.913 32.7487C23.938 33.0486 24.2037 33.2917 24.4984 33.2917H27.7516C28.0498 33.2917 28.3122 33.0448 28.3369 32.7487L28.8333 26.7917L29.9441 26.4214C30.2281 26.3268 30.4583 26.0076 30.4583 25.7092V21.9208C30.4583 20.4228 29.2441 19.2084 27.7518 19.2084H24.4982Z" fill="#D0C7C7"/>
<path fill-rule="evenodd" clip-rule="evenodd" d="M8.24816 19.2084C6.75338 19.2084 5.54163 20.4161 5.54163 21.9188V25.5977C5.54163 25.8981 5.76758 26.2321 6.04688 26.3438L7.16663 26.7917L7.66304 32.7487C7.68803 33.0486 7.95369 33.2917 8.24835 33.2917H11.5016C11.7998 33.2917 12.0622 33.0448 12.0869 32.7487L12.5833 26.7917L13.6941 26.4214C13.9781 26.3268 14.2083 26.0076 14.2083 25.7092V21.9208C14.2083 20.4228 12.9941 19.2084 11.5018 19.2084H8.24816Z" fill="#AC9D9D"/>
<path d="M18 17.0417C19.7949 17.0417 21.25 15.5866 21.25 13.7917C21.25 11.9968 19.7949 10.5417 18 10.5417C16.2051 10.5417 14.75 11.9968 14.75 13.7917C14.75 15.5866 16.2051 17.0417 18 17.0417Z" fill="#D93954"/>
<path fill-rule="evenodd" clip-rule="evenodd" d="M15.8336 18.125C14.0385 18.125 12.5833 19.5756 12.5833 21.3768V26.2495C12.5833 26.5489 12.7989 26.8995 13.0641 27.0321L14.7499 27.875L15.2938 34.9616C15.317 35.2428 15.551 35.4583 15.8333 35.4583H20.1666C20.4488 35.4583 20.6828 35.2428 20.7061 34.9616L21.2158 27.7645L22.9172 27.0124C23.193 26.8905 23.4166 26.5508 23.4166 26.2495V21.3768C23.4166 19.5809 21.9668 18.125 20.1662 18.125H15.8336Z" fill="#D93954"/>
</g>
<defs>
<clipPath id="clip0">
<rect width="26" height="26" fill="white" transform="translate(4 8)"/>
</clipPath>
</defs>
</svg>
