<svg width="26" height="26" viewBox="0 0 26 26" fill="none" xmlns="http://www.w3.org/2000/svg">
<path d="M4.27264 7.54546C3.06719 7.54546 2.09082 6.5691 2.09082 5.36364C2.09082 4.15819 3.06719 3.18182 4.27264 3.18182C5.4781 3.18182 6.45446 4.15819 6.45446 5.36364C6.45446 6.5691 5.4781 7.54546 4.27264 7.54546Z" stroke="#AC9D9D" stroke-miterlimit="10" stroke-linecap="square"/>
<path d="M6.45455 22.8182H3.18182V18.4545H1V13C1 11.7945 1.97637 10.8182 3.18182 10.8182H4.27273" stroke="#AC9D9D" stroke-miterlimit="10" stroke-linecap="square"/>
<path d="M21.7272 7.54546C22.9327 7.54546 23.9091 6.5691 23.9091 5.36364C23.9091 4.15819 22.9327 3.18182 21.7272 3.18182C20.5218 3.18182 19.5454 4.15819 19.5454 5.36364C19.5454 6.5691 20.5218 7.54546 21.7272 7.54546Z" stroke="#AC9D9D" stroke-miterlimit="10" stroke-linecap="square"/>
<path d="M19.5454 22.8182H22.8181V18.4545H24.9999V13C24.9999 11.7945 24.0236 10.8182 22.8181 10.8182H21.7272" stroke="#AC9D9D" stroke-miterlimit="10" stroke-linecap="square"/>
<path d="M13 7.54545C11.1924 7.54545 9.72729 6.08036 9.72729 4.27273C9.72729 2.46509 11.1924 1 13 1C14.8077 1 16.2728 2.46509 16.2728 4.27273C16.2728 6.08036 14.8077 7.54545 13 7.54545Z" stroke="#AC9D9D" stroke-miterlimit="10" stroke-linecap="square"/>
<path d="M16.2727 25H9.72722V18.4545H7.54541V13C7.54541 11.7945 8.52177 10.8182 9.72722 10.8182H16.2727C17.4781 10.8182 18.4545 11.7945 18.4545 13V19.5454H16.2727V25Z" stroke="#AC9D9D" stroke-miterlimit="10" stroke-linecap="square"/>
</svg>
