<svg width="27" height="27" viewBox="0 0 27 27" fill="none" xmlns="http://www.w3.org/2000/svg">
<circle cx="17" cy="10" r="10" fill="#F1DFE2"/>
<path d="M17.875 11.875C19.1407 11.875 20.1667 10.8489 20.1667 9.58329C20.1667 8.31764 19.1407 7.29163 17.875 7.29163C16.6094 7.29163 15.5834 8.31764 15.5834 9.58329C15.5834 10.8489 16.6094 11.875 17.875 11.875Z" fill="#D0C7C7"/>
<path d="M4.12504 11.875C5.39069 11.875 6.41671 10.8489 6.41671 9.58329C6.41671 8.31764 5.39069 7.29163 4.12504 7.29163C2.85939 7.29163 1.83337 8.31764 1.83337 9.58329C1.83337 10.8489 2.85939 11.875 4.12504 11.875Z" fill="#AC9D9D"/>
<path fill-rule="evenodd" clip-rule="evenodd" d="M16.4985 12.7916C15.2337 12.7916 14.2084 13.8135 14.2084 15.085V18.1979C14.2084 18.4522 14.3996 18.7348 14.6359 18.8293L15.5834 19.2083L16.0034 24.2488C16.0246 24.5026 16.2494 24.7083 16.4987 24.7083H19.2514C19.5038 24.7083 19.7258 24.4994 19.7467 24.2488L20.1667 19.2083L21.1067 18.895C21.3469 18.8149 21.5417 18.5449 21.5417 18.2923V15.0867C21.5417 13.8192 20.5143 12.7916 19.2516 12.7916H16.4985Z" fill="#D0C7C7"/>
<path fill-rule="evenodd" clip-rule="evenodd" d="M2.74852 12.7916C1.48371 12.7916 0.458374 13.8135 0.458374 15.085V18.1979C0.458374 18.4522 0.649562 18.7348 0.885895 18.8293L1.83337 19.2083L2.25342 24.2488C2.27456 24.5026 2.49935 24.7083 2.74868 24.7083H5.5014C5.75378 24.7083 5.97578 24.4994 5.99666 24.2488L6.41671 19.2083L7.35665 18.895C7.59692 18.8149 7.79171 18.5449 7.79171 18.2923V15.0867C7.79171 13.8192 6.76432 12.7916 5.50156 12.7916H2.74852Z" fill="#AC9D9D"/>
<path d="M11 10.9583C12.5188 10.9583 13.75 9.7271 13.75 8.20831C13.75 6.68953 12.5188 5.45831 11 5.45831C9.48122 5.45831 8.25 6.68953 8.25 8.20831C8.25 9.7271 9.48122 10.9583 11 10.9583Z" fill="#D93954"/>
<path fill-rule="evenodd" clip-rule="evenodd" d="M9.16705 11.875C7.6481 11.875 6.41675 13.1024 6.41675 14.6265V18.7496C6.41675 19.0029 6.59924 19.2996 6.82362 19.4118L8.25008 20.125L8.71025 26.1214C8.72996 26.3593 8.92796 26.5417 9.16675 26.5417H12.8334C13.0722 26.5417 13.2702 26.3593 13.2899 26.1214L13.7212 20.0315L15.1608 19.3951C15.3942 19.292 15.5834 19.0045 15.5834 18.7496V14.6265C15.5834 13.1069 14.3567 11.875 12.8331 11.875H9.16705Z" fill="#D93954"/>
</svg>
