<svg width="20" height="21" viewBox="0 0 20 21" fill="none" xmlns="http://www.w3.org/2000/svg">
<path d="M9.99 0.142822C4.47 0.142822 0 4.62282 0 10.1428C0 15.6628 4.47 20.1428 9.99 20.1428C15.52 20.1428 20 15.6628 20 10.1428C20 4.62282 15.52 0.142822 9.99 0.142822ZM10 18.1428C5.58 18.1428 2 14.5628 2 10.1428C2 5.72282 5.58 2.14282 10 2.14282C14.42 2.14282 18 5.72282 18 10.1428C18 14.5628 14.42 18.1428 10 18.1428ZM10.5 5.14282H9V11.1428L14.25 14.2928L15 13.0628L10.5 10.3928V5.14282Z" fill="#D93954"/>
</svg>
