<svg width="39" height="29" viewBox="0 0 39 29" fill="none" xmlns="http://www.w3.org/2000/svg">
<path d="M33 13C33 18.5228 28.5228 23 23 23C17.4772 23 13 18.5228 13 13C13 7.47715 17.4772 3 23 3C28.5228 3 33 7.47715 33 13Z" fill="#F1DFE2"/>
<g clip-path="url(#clip0)">
<path d="M11.6563 23.1288C12.9352 23.7072 13.4953 26 13.4953 26L22.8546 25.9743C22.6791 25.6102 22.4798 25.2581 22.258 24.9202C22.0809 24.5589 21.9321 24.1844 21.8132 23.8C21.5942 23.0585 21.4425 22.2987 21.3601 21.5299C21.2211 20.3487 21.3991 19.1518 21.8758 18.0621C22.2961 17.1038 23.0258 16.3446 23.5825 15.4672C24.1332 14.6102 24.4296 13.6147 24.4375 12.5961C24.4583 11.5641 24.3316 10.5345 24.0613 9.53843C23.7079 8.33169 22.9704 7.27321 21.9608 6.52368C20.1143 5.07392 18.2275 4.26328 15.8392 4.38483C14.6441 4.46806 13.4567 4.63855 12.2864 4.89494C11.0119 5.15148 9.66246 5.62802 8.74778 6.59378C8.12382 7.26053 7.64177 8.04705 7.33083 8.90565C7.18509 9.33275 7.06653 9.76865 6.97585 10.2107C6.82305 10.6916 6.63882 11.162 6.42436 11.6187C6.36133 11.7579 6.33391 11.9105 6.34456 12.0628C6.4169 12.5789 7.19026 12.8 7.19622 13.3329C7.18829 13.4505 7.15209 13.5645 7.0907 13.6651C6.63703 14.6238 6.08013 15.5302 5.42988 16.3681C5.27663 16.5564 4.96453 16.9274 5.00331 17.1937C5.0309 17.3827 5.25761 17.5397 5.39744 17.6437C5.69575 17.8652 6.30317 18.0166 6.37887 18.4164C6.41839 18.6199 6.3939 18.8306 6.30876 19.0197C6.10219 19.4548 5.87361 19.6868 6.03581 19.8232C6.19802 19.9597 6.63242 20.2875 6.63242 20.2875C6.63242 20.2875 6.22002 20.8147 6.44822 20.9766C6.73198 21.1779 7.09256 21.2708 7.18914 21.6477C7.2174 21.9465 7.18752 22.2478 7.10114 22.5352C7.07182 22.8164 7.10859 23.1005 7.20853 23.3649C7.34312 23.8937 7.8714 24.2218 8.4051 24.108C9.50575 23.8407 10.5911 23.5138 11.6563 23.1288Z" fill="#C5BEBE"/>
<path fill-rule="evenodd" clip-rule="evenodd" d="M20.6609 17.4238C20.6609 16.1228 22.1226 15.5635 22.8524 14.7491C23.6259 13.8623 24.0408 12.7188 24.0158 11.5423C23.996 9.06576 22.018 7.0499 19.5423 6.98309C17.0663 7.0495 15.0879 9.06519 15.0677 11.5419C15.0427 12.7185 15.4575 13.862 16.2311 14.7487C16.9623 15.5635 18.4237 16.1228 18.4237 17.4238H20.6609Z" fill="#D93954"/>
<path d="M8.44053 10.5131C8.34228 10.4915 8.25693 10.4311 8.20385 10.3457C8.15076 10.2602 8.13446 10.157 8.15863 10.0593C8.21724 9.80027 8.29069 9.54479 8.37863 9.29417C8.63799 8.57653 9.03981 7.91876 9.55992 7.36041C10.1655 6.72204 11.1585 6.25966 12.5117 5.99044C12.7137 5.95029 12.91 6.0815 12.9502 6.28353C12.9903 6.48555 12.8591 6.68188 12.6571 6.72204C11.4586 6.96031 10.5988 7.34773 10.1017 7.87275C9.65111 8.35744 9.30309 8.92818 9.07853 9.55071C9.00044 9.77489 8.9352 10.0033 8.88314 10.235C8.83619 10.4329 8.63925 10.5567 8.44053 10.5131Z" fill="#F3F1F1"/>
<path d="M7.98299 12.2034C8.18892 12.2034 8.35587 12.0365 8.35587 11.8305C8.35587 11.6246 8.18892 11.4576 7.98299 11.4576C7.77705 11.4576 7.61011 11.6246 7.61011 11.8305C7.61011 12.0365 7.77705 12.2034 7.98299 12.2034Z" fill="#F3F1F1"/>
<path d="M18.4238 19.661H20.6611V20.0339C20.6611 20.6517 20.1603 21.1525 19.5425 21.1525C18.9247 21.1525 18.4238 20.6517 18.4238 20.0339V19.661Z" fill="#645959"/>
<path d="M26.627 11.8305H25.5084C25.3024 11.8305 25.1355 11.6636 25.1355 11.4577C25.1355 11.2517 25.3024 11.0848 25.5084 11.0848H26.627C26.833 11.0848 26.9999 11.2517 26.9999 11.4577C26.9999 11.6636 26.833 11.8305 26.627 11.8305Z" fill="#D93954"/>
<path d="M23.7609 7.6121C23.6099 7.61222 23.4738 7.52131 23.4161 7.38184C23.3583 7.24236 23.3904 7.08183 23.4973 6.97522L24.2885 6.18434C24.3821 6.08741 24.5208 6.04853 24.6511 6.08266C24.7815 6.11678 24.8833 6.2186 24.9174 6.34897C24.9516 6.47934 24.9127 6.61797 24.8158 6.7116L24.0249 7.50285C23.9549 7.57287 23.8599 7.61218 23.7609 7.6121Z" fill="#D93954"/>
<path d="M19.5423 5.86441C19.3364 5.86441 19.1694 5.69746 19.1694 5.49153V4.37288C19.1694 4.16694 19.3364 4 19.5423 4C19.7483 4 19.9152 4.16694 19.9152 4.37288V5.49153C19.9152 5.69746 19.7483 5.86441 19.5423 5.86441Z" fill="#D93954"/>
<path d="M15.324 7.6121C15.225 7.61218 15.13 7.57287 15.06 7.50285L14.2691 6.7116C14.1722 6.61797 14.1333 6.47934 14.1674 6.34897C14.2016 6.2186 14.3034 6.11678 14.4337 6.08266C14.5641 6.04853 14.7028 6.08741 14.7964 6.18434L15.5876 6.97522C15.6945 7.08183 15.7266 7.24236 15.6688 7.38184C15.6111 7.52131 15.475 7.61222 15.324 7.6121Z" fill="#D93954"/>
<path d="M13.5762 11.8305H12.4576C12.2517 11.8305 12.0847 11.6636 12.0847 11.4577C12.0847 11.2517 12.2517 11.0848 12.4576 11.0848H13.5762C13.7822 11.0848 13.9491 11.2517 13.9491 11.4577C13.9491 11.6636 13.7822 11.8305 13.5762 11.8305Z" fill="#D93954"/>
<path d="M19.5422 14.4407C21.3957 14.4407 22.8982 12.7713 22.8982 10.7119C22.8982 8.65254 21.3957 6.98309 19.5422 6.98309C17.6888 6.98309 16.1863 8.65254 16.1863 10.7119C16.1863 12.7713 17.6888 14.4407 19.5422 14.4407Z" fill="#F1DFE2"/>
<path d="M20.2881 17.7966C20.0821 17.7966 19.9152 17.6297 19.9152 17.4237V12.9491H19.1694V17.4237C19.1694 17.6297 19.0025 17.7966 18.7965 17.7966C18.5906 17.7966 18.4237 17.6297 18.4237 17.4237V12.9491H18.0508C17.433 12.9491 16.9321 12.4483 16.9321 11.8305C16.9321 11.2127 17.433 10.7119 18.0508 10.7119C18.6686 10.7119 19.1694 11.2127 19.1694 11.8305V12.2034H19.9152V11.8305C19.9152 11.2127 20.416 10.7119 21.0338 10.7119C21.6516 10.7119 22.1525 11.2127 22.1525 11.8305C22.1525 12.4483 21.6516 12.9491 21.0338 12.9491H20.6609V17.4237C20.6609 17.6297 20.494 17.7966 20.2881 17.7966ZM20.6609 12.2034H21.0338C21.2398 12.2034 21.4067 12.0364 21.4067 11.8305C21.4067 11.6246 21.2398 11.4576 21.0338 11.4576C20.8279 11.4576 20.6609 11.6246 20.6609 11.8305V12.2034ZM18.0508 11.4576C17.8448 11.4576 17.6779 11.6246 17.6779 11.8305C17.6779 12.0364 17.8448 12.2034 18.0508 12.2034H18.4237V11.8305C18.4237 11.6246 18.2567 11.4576 18.0508 11.4576Z" fill="#645959"/>
<path d="M20.6613 17.4238H18.424C18.0121 17.4238 17.6782 17.7577 17.6782 18.1695V18.9153C17.6782 19.3272 18.0121 19.661 18.424 19.661H20.6613C21.0731 19.661 21.407 19.3272 21.407 18.9153V18.1695C21.407 17.7577 21.0731 17.4238 20.6613 17.4238Z" fill="#F3F1F1"/>
</g>
<defs>
<clipPath id="clip0">
<rect width="22" height="22" fill="white" transform="translate(5 4)"/>
</clipPath>
</defs>
</svg>
