<svg width="39" height="29" viewBox="0 0 39 29" fill="none" xmlns="http://www.w3.org/2000/svg">
<path d="M33 13C33 18.5228 28.5228 23 23 23C17.4772 23 13 18.5228 13 13C13 7.47715 17.4772 3 23 3C28.5228 3 33 7.47715 33 13Z" fill="#F1DFE2"/>
<path d="M27.5709 20.3852L19.1914 21.1138C18.4157 21.1813 17.6378 21.0104 16.9617 20.6241L14.6522 19.3044H20.0411C20.7628 19.3044 21.3478 18.7193 21.3478 17.9976V17.9976C21.3478 17.3687 20.9 16.8291 20.2819 16.7132L15.4432 15.8059C14.2807 15.588 13.1005 15.4783 11.9177 15.4783H7.95654V22.403L15.8236 25.6826C16.6944 26.0091 17.6578 26.0045 18.5441 25.7807L29 21.6957V21.6954C29 20.9241 28.3393 20.3183 27.5709 20.3852Z" fill="#EAD8C5"/>
<path d="M9.86957 24.5652H7.47826C7.21413 24.5652 7 24.3511 7 24.0869V15C7 14.7359 7.21413 14.5217 7.47826 14.5217H9.86957C10.1337 14.5217 10.3478 14.7359 10.3478 15V24.0869C10.3478 24.3511 10.1337 24.5652 9.86957 24.5652Z" fill="#AC9D9D"/>
<path d="M23.7988 13.7734C23.7988 13.4414 23.6934 13.168 23.4824 12.9531C23.2715 12.7344 22.9199 12.5391 22.4277 12.3672C21.9355 12.1914 21.5527 12.0293 21.2793 11.8809C20.3691 11.3926 19.9141 10.6699 19.9141 9.71289C19.9141 9.06445 20.1113 8.53125 20.5059 8.11328C20.9004 7.69531 21.4355 7.44727 22.1113 7.36914V6.0918H23.0488V7.38086C23.7285 7.47852 24.2539 7.76758 24.625 8.24805C24.9961 8.72461 25.1816 9.3457 25.1816 10.1113H23.7637C23.7637 9.61914 23.6523 9.23242 23.4297 8.95117C23.2109 8.66602 22.9121 8.52344 22.5332 8.52344C22.1582 8.52344 21.8652 8.625 21.6543 8.82812C21.4434 9.03125 21.3379 9.32227 21.3379 9.70117C21.3379 10.041 21.4414 10.3145 21.6484 10.5215C21.8594 10.7246 22.2148 10.918 22.7148 11.1016C23.2148 11.2852 23.6074 11.4551 23.8926 11.6113C24.1777 11.7676 24.418 11.9473 24.6133 12.1504C24.8086 12.3496 24.959 12.5801 25.0645 12.8418C25.1699 13.1035 25.2227 13.4102 25.2227 13.7617C25.2227 14.4219 25.0195 14.957 24.6133 15.3672C24.2109 15.7773 23.6484 16.0195 22.9258 16.0938V17.2363H21.9941V16.0996C21.2207 16.0137 20.625 15.7363 20.207 15.2676C19.793 14.7988 19.5859 14.1777 19.5859 13.4043H21.0098C21.0098 13.8965 21.1328 14.2773 21.3789 14.5469C21.6289 14.8164 21.9805 14.9512 22.4336 14.9512C22.8789 14.9512 23.2168 14.8438 23.4473 14.6289C23.6816 14.4141 23.7988 14.1289 23.7988 13.7734Z" fill="#D93954"/>
</svg>
