<svg width="39" height="29" viewBox="0 0 39 29" fill="none" xmlns="http://www.w3.org/2000/svg">
<circle cx="23" cy="13" r="10" fill="#F1DFE2"/>
<path d="M23.6249 25.625H4.37492C3.86846 25.625 3.45825 25.2148 3.45825 24.7083V7.29167C3.45825 6.78521 3.86846 6.375 4.37492 6.375H23.6249C24.1314 6.375 24.5416 6.78521 24.5416 7.29167V24.7083C24.5416 25.2148 24.1314 25.625 23.6249 25.625Z" fill="#C5BEBE"/>
<path d="M12.6248 13.7084C13.6374 13.7084 14.4582 12.8875 14.4582 11.875C14.4582 10.8625 13.6374 10.0417 12.6248 10.0417C11.6123 10.0417 10.7915 10.8625 10.7915 11.875C10.7915 12.8875 11.6123 13.7084 12.6248 13.7084Z" fill="#D93954"/>
<path d="M22.1547 21.2204L17.5713 15.2621C17.3981 15.0366 17.0181 15.0366 16.8449 15.2621L13.0668 20.1731L10.2325 16.6302C10.0588 16.4125 9.69031 16.4125 9.5166 16.6302L5.84993 21.2135C5.61114 21.5128 5.82381 21.9583 6.20835 21.9583H21.7917C22.1716 21.9583 22.3866 21.5215 22.1547 21.2204Z" fill="#F3F1F1"/>
</svg>
