<svg width="20" height="20" viewBox="0 0 20 20" fill="none" xmlns="http://www.w3.org/2000/svg">
<g clip-path="url(#clip0)">
<path d="M18.531 6.54418C18.5913 3.9897 16.5626 1.82493 14.0076 1.79716C12.2969 1.77854 10.8004 2.69941 9.99982 4.07515C9.19903 2.69941 7.70275 1.77839 5.99208 1.79716C3.43699 1.82493 1.40832 3.9897 1.46859 6.54418C1.60348 12.2524 8.4306 17.2173 9.77231 18.1388C9.90948 18.2331 10.0901 18.2331 10.2273 18.1388C11.569 17.2173 18.3961 12.2524 18.531 6.54418V6.54418Z" fill="#D93954"/>
<path d="M18.5333 6.37346C18.5333 12.1524 11.5842 17.2068 10.2275 18.1385C10.0902 18.2328 9.90934 18.2333 9.77186 18.139C9.43769 17.9095 8.7631 17.4291 7.93652 16.749C9.29899 15.8127 16.2387 10.7613 16.2387 4.98582C16.2387 3.81272 15.7979 2.74247 15.0722 1.93359C17.0607 2.43149 18.5333 4.22975 18.5333 6.37346Z" fill="#AF2D43"/>
<path d="M9.94328 14.752C9.69517 14.752 9.482 14.5755 9.43592 14.3313L8.17523 7.6347L6.83383 10.8226C6.7557 11.0083 6.57687 11.1314 6.3756 11.1383C6.17404 11.1451 5.98742 11.0342 5.89693 10.8543L5.53835 10.1416H0.516207C0.231172 10.1416 0 9.9104 0 9.62537C0 9.34018 0.231172 9.10916 0.516207 9.10916H5.8565C6.05059 9.10916 6.2282 9.21796 6.31625 9.39068L7.88928 5.65273C7.97763 5.44262 8.19339 5.31536 8.41968 5.33962C8.64627 5.36373 8.83014 5.53341 8.87241 5.75741L9.91184 11.2794L10.342 8.69565C10.3833 8.44662 10.5986 8.26413 10.851 8.26413H12.5358C12.7103 8.26413 12.8731 8.35232 12.9683 8.4985L13.7594 9.71265L14.1005 9.29761C14.1987 9.17828 14.345 9.10916 14.4994 9.10916H19.4839C19.7689 9.10916 19.9999 9.34033 19.9999 9.62537C19.9999 9.9104 19.7689 10.1416 19.4839 10.1416H14.7434L14.1102 10.912C14.0058 11.0389 13.8469 11.1087 13.6829 11.0997C13.5186 11.0907 13.3686 11.0038 13.2789 10.8661L12.2562 9.29654H11.2885L10.4525 14.3205C10.4114 14.5674 10.199 14.7493 9.94877 14.7519C9.94694 14.7519 9.94495 14.752 9.94328 14.752V14.752Z" fill="#F3F1F1"/>
</g>
<defs>
<clipPath id="clip0">
<rect width="20" height="20" fill="white"/>
</clipPath>
</defs>
</svg>
