<svg width="42" height="28" viewBox="0 0 42 28" fill="none" xmlns="http://www.w3.org/2000/svg">
<circle cx="28" cy="11" r="10" fill="#F1DFE2"/>
<path d="M14.3335 12.5V7.91667C14.3335 7.68655 14.52 7.5 14.7502 7.5H16.4168C16.647 7.5 16.8335 7.68655 16.8335 7.91667V10.4545L14.3335 12.5Z" fill="#D93954"/>
<path d="M21.0001 6.25L13.9167 12.5463V23.3331C13.9167 23.7934 14.2899 24.1665 14.7501 24.1665H27.2501C27.7103 24.1665 28.0834 23.7934 28.0834 23.3331V12.5463L21.0001 6.25Z" fill="#ECE6E6"/>
<path d="M30.1666 14.9998C30.0667 14.9998 29.9664 14.964 29.8864 14.8916L21.0001 6.81295L12.1138 14.8916C11.9433 15.0462 11.6798 15.0332 11.5252 14.8635C11.3704 14.693 11.3828 14.4297 11.5531 14.2747L20.7197 5.94137C20.8788 5.79733 21.1213 5.79733 21.2804 5.94137L30.4471 14.2747C30.6174 14.4297 30.6298 14.693 30.475 14.8635C30.3928 14.9538 30.2799 14.9998 30.1666 14.9998Z" fill="#D93954"/>
<path d="M22.6667 18.75H19.3334C19.1033 18.75 18.9167 18.9365 18.9167 19.1667V24.1667H23.0834V19.1667C23.0834 18.9365 22.8969 18.75 22.6667 18.75Z" fill="#D93954"/>
<path d="M22.6667 16.25H19.3334C19.1033 16.25 18.9167 16.0635 18.9167 15.8334V13.3334C18.9167 13.1032 19.1033 12.9167 19.3334 12.9167H22.6667C22.8969 12.9167 23.0834 13.1032 23.0834 13.3334V15.8334C23.0834 16.0635 22.8969 16.25 22.6667 16.25Z" fill="#AC9D9D"/>
<path d="M16.9643 24.1667C17.1454 23.7875 17.2501 23.3649 17.2501 22.9167C17.2501 21.3058 15.9443 20 14.3334 20C12.7226 20 11.4167 21.3058 11.4167 22.9167C11.4167 23.3649 11.5215 23.7875 11.7026 24.1667H16.9643Z" fill="#C5BEBE"/>
<path d="M30.2975 24.1667C30.4786 23.7875 30.5833 23.3649 30.5833 22.9167C30.5833 21.3058 29.2775 20 27.6667 20C26.0558 20 24.75 21.3058 24.75 22.9167C24.75 23.3649 24.8547 23.7875 25.0358 24.1667H30.2975Z" fill="#C5BEBE"/>
</svg>
