<svg width="39" height="29" viewBox="0 0 39 29" fill="none" xmlns="http://www.w3.org/2000/svg">
<circle cx="23" cy="13" r="10" fill="#F1DFE2"/>
<g clip-path="url(#clip0)">
<path d="M17.0003 10.0691C18.1235 10.0691 19.034 9.15852 19.034 8.03532C19.034 6.91212 18.1235 6.00159 17.0003 6.00159C15.8771 6.00159 14.9666 6.91212 14.9666 8.03532C14.9666 9.15852 15.8771 10.0691 17.0003 10.0691Z" fill="#D93954"/>
<path d="M10.642 13.3719C11.4301 14.151 11.4374 15.4213 10.6583 16.2093C10.6529 16.2148 10.6475 16.2202 10.642 16.2256C9.84541 17.0138 8.5628 17.0138 7.76622 16.2256C6.97819 15.4466 6.97094 14.1762 7.74995 13.3882C7.75533 13.3827 7.76075 13.3774 7.76622 13.3719C8.5628 12.5838 9.84541 12.5838 10.642 13.3719Z" fill="#F1DFE2"/>
<path d="M18.6757 6.88409L15.8486 9.71115C16.7736 10.3475 18.0394 10.1135 18.6757 9.18849C19.1531 8.49452 19.1531 7.57802 18.6757 6.88409Z" fill="#AC9D9D"/>
<path d="M18.1986 6.40253L18.6626 6.86647C18.0187 5.94727 16.7517 5.72407 15.8325 6.36791C14.9133 7.01176 14.6901 8.27882 15.3339 9.19798C15.3434 9.21154 15.353 9.22497 15.3629 9.23827L18.1986 6.40253Z" fill="#AC9D9D"/>
<path d="M19.0339 11.425H14.9664C14.2176 11.425 13.6106 12.032 13.6106 12.7808C13.6106 13.5296 14.2176 14.1366 14.9664 14.1366H19.0339C19.7827 14.1366 20.3897 13.5296 20.3897 12.7808C20.3897 12.032 19.7827 11.425 19.0339 11.425Z" fill="white"/>
<path d="M19.0337 11.425H17V14.1366H19.0337C19.7825 14.1366 20.3895 13.5296 20.3895 12.7808C20.3895 12.032 19.7825 11.425 19.0337 11.425Z" fill="#645959"/>
<path d="M26.4328 6.3988C25.9033 5.86935 25.0449 5.86935 24.5154 6.3988L21.6392 9.27496C21.1121 9.80678 21.1159 10.6652 21.6477 11.1924C22.1762 11.7162 23.0281 11.7162 23.5566 11.1924L26.4328 8.31623C26.9623 7.78673 26.9623 6.92829 26.4328 6.3988Z" fill="white"/>
<path d="M24.5155 6.39877L23.0774 7.83683L24.9948 9.75426L26.4329 8.3162C26.9624 7.78671 26.9624 6.92826 26.4329 6.39877C25.9034 5.86928 25.045 5.86928 24.5155 6.39877Z" fill="#D93954"/>
<path d="M8.89696 12.8119H9.53055C8.88666 12.7051 8.23057 12.9133 7.7662 13.372C6.97817 14.1529 6.97241 15.4248 7.75332 16.2127C8.06164 16.5239 8.46327 16.7257 8.89692 16.7875V12.8119H8.89696Z" fill="#D93954"/>
<path d="M10.6422 13.3719C10.3509 13.0829 9.97877 12.8891 9.57495 12.8161V16.7814C9.97873 16.7085 10.3509 16.5146 10.6422 16.2256C11.4302 15.4465 11.4374 14.1762 10.6584 13.3881C10.653 13.3828 10.6476 13.3773 10.6422 13.3719Z" fill="#D93954"/>
<path d="M12.3611 9.27489L9.48496 6.39877C8.95547 5.86928 8.09702 5.86928 7.56753 6.39877C7.03804 6.92826 7.03804 7.78671 7.56753 8.3162L10.4437 11.1923C10.9731 11.7218 11.8316 11.7218 12.3611 11.1923C12.8906 10.6628 12.8906 9.80438 12.3611 9.27489Z" fill="#AC9D9D"/>
<path d="M7.56753 8.3162L9.00559 9.75426L10.923 7.83683L9.48496 6.39877C8.95547 5.86928 8.09702 5.86928 7.56753 6.39877C7.03804 6.92826 7.03804 7.78671 7.56753 8.3162Z" fill="#645959"/>
<path d="M25.9354 14.2779C25.4806 14.005 24.8932 14.1201 24.575 14.5443L22.6734 17.0798C22.2956 17.5835 21.7368 17.9207 21.1151 18.0202L14.6274 18.882L19.0925 17.089C19.3922 16.9792 19.5881 16.6899 19.5787 16.3708C19.5588 15.9723 19.2196 15.6653 18.8211 15.6853C18.7613 15.6883 18.7022 15.6987 18.6451 15.7162L12.711 17.5411C11.9848 17.7486 11.3708 18.236 11.004 18.8962L9.88203 20.9157L8.18726 26.0001H13.2716L13.5266 23.9601C13.5779 23.5497 13.8603 23.2051 14.2527 23.0743L22.8731 20.2009C23.4554 20.0068 23.9426 19.5993 24.2365 19.0604L26.2861 15.7047C26.584 15.2169 26.4302 14.58 25.9424 14.2821C25.94 14.2807 25.9377 14.2793 25.9354 14.2779Z" fill="#EAD8C5"/>
</g>
<defs>
<clipPath id="clip0">
<rect width="20" height="20" fill="white" transform="translate(7 6)"/>
</clipPath>
</defs>
</svg>
