<svg width="27" height="25" viewBox="0 0 27 25" fill="none" xmlns="http://www.w3.org/2000/svg">
<circle cx="17" cy="10" r="10" fill="#F1DFE2"/>
<path d="M21.0435 7.85712H6.21739C5.68891 7.85712 5.26086 8.28331 5.26086 8.8095V20.2381C5.26086 20.7643 5.68891 21.1904 6.21739 21.1904H11.8116L17.4302 24.92C17.5101 24.9728 17.6029 25 17.6956 25C17.7731 25 17.8506 24.9814 17.9214 24.9438C18.0768 24.8609 18.1739 24.6995 18.1739 24.5238V21.1904H21.0435C21.572 21.1904 22 20.7643 22 20.2381V8.8095C22 8.28331 21.572 7.85712 21.0435 7.85712Z" fill="#D93954"/>
<path d="M17.2174 5H0.956522C0.428043 5 0 5.42619 0 5.95238V17.381C0 17.9071 0.428043 18.3333 0.956522 18.3333H3.82609V22.619C3.82609 22.7976 3.92604 22.9609 4.0853 23.0429C4.15465 23.0781 4.22974 23.0952 4.30435 23.0952C4.40239 23.0952 4.49948 23.0657 4.58222 23.0062L11.153 18.3333H17.2174C17.7459 18.3333 18.1739 17.9071 18.1739 17.381V5.95238C18.1739 5.42619 17.7459 5 17.2174 5Z" fill="#AC9D9D"/>
</svg>
