<svg width="40" height="40" viewBox="0 0 40 40" fill="none" xmlns="http://www.w3.org/2000/svg">
<circle cx="26" cy="17" r="10" fill="#F1DFE2"/>
<path d="M26.0435 15.1428H11.2174C10.6889 15.1428 10.2609 15.6116 10.2609 16.1904V28.7619C10.2609 29.3407 10.6889 29.8095 11.2174 29.8095H16.8116L22.4302 33.912C22.5101 33.9701 22.6029 34 22.6956 34C22.7731 34 22.8506 33.9795 22.9214 33.9382C23.0768 33.847 23.1739 33.6694 23.1739 33.4762V29.8095H26.0435C26.572 29.8095 27 29.3407 27 28.7619V16.1904C27 15.6116 26.572 15.1428 26.0435 15.1428Z" fill="#D93954"/>
<path d="M22.2174 12H5.95652C5.42804 12 5 12.4688 5 13.0476V25.619C5 26.1979 5.42804 26.6667 5.95652 26.6667H8.82609V31.3809C8.82609 31.5774 8.92604 31.757 9.0853 31.8471C9.15465 31.8859 9.22974 31.9048 9.30435 31.9048C9.40239 31.9048 9.49948 31.8723 9.58222 31.8068L16.153 26.6667H22.2174C22.7459 26.6667 23.1739 26.1979 23.1739 25.619V13.0476C23.1739 12.4688 22.7459 12 22.2174 12Z" fill="#AC9D9D"/>
</svg>
