<svg width="23" height="26" viewBox="0 0 23 26" fill="none" xmlns="http://www.w3.org/2000/svg">
<circle cx="13" cy="10" r="10" fill="#F1DFE2"/>
<path d="M12.2221 23.0667C12.2221 24.6867 10.9088 26 9.2888 26C7.66877 26 6.35547 24.6867 6.35547 23.0667H12.2221Z" fill="#D93954"/>
<path d="M18.0887 23.5556H0.488664C0.308674 23.5556 0.143244 23.4563 0.0580211 23.2977C-0.027202 23.1388 -0.0178887 22.9459 0.081654 22.796C0.100276 22.7678 1.95533 19.929 1.95533 16.2222V11.3333C1.95533 7.2895 5.24507 4 9.28867 4C13.3323 4 16.622 7.2895 16.622 11.3333V16.2222C16.622 19.9424 18.4768 22.7673 18.4954 22.7955C18.5955 22.9454 18.6048 23.1383 18.5198 23.2973C18.4346 23.4563 18.2689 23.5556 18.0887 23.5556Z" fill="#C7B6B6"/>
</svg>
