<svg width="40" height="40" viewBox="0 0 40 40" fill="none" xmlns="http://www.w3.org/2000/svg">
<circle cx="26" cy="17" r="10" fill="#F1DFE2"/>
<path d="M21.2221 31.0667C21.2221 32.6867 19.9088 34 18.2888 34C16.6688 34 15.3555 32.6867 15.3555 31.0667H21.2221Z" fill="#D93954"/>
<path d="M27.0887 31.5556H9.48866C9.30867 31.5556 9.14324 31.4563 9.05802 31.2977C8.9728 31.1388 8.98211 30.9459 9.08165 30.796C9.10028 30.7678 10.9553 27.929 10.9553 24.2222V19.3333C10.9553 15.2895 14.2451 12 18.2887 12C22.3323 12 25.622 15.2895 25.622 19.3333V24.2222C25.622 27.9424 27.4768 30.7673 27.4954 30.7955C27.5955 30.9454 27.6048 31.1383 27.5198 31.2973C27.4346 31.4563 27.2689 31.5556 27.0887 31.5556Z" fill="#C7B6B6"/>
</svg>
