<svg width="22" height="22" viewBox="0 0 22 22" fill="none" xmlns="http://www.w3.org/2000/svg">
<path d="M17.875 6.87484C19.1407 6.87484 20.1667 5.84882 20.1667 4.58317C20.1667 3.31752 19.1407 2.2915 17.875 2.2915C16.6094 2.2915 15.5834 3.31752 15.5834 4.58317C15.5834 5.84882 16.6094 6.87484 17.875 6.87484Z" fill="#D0C7C7"/>
<path d="M4.12504 6.87484C5.39069 6.87484 6.41671 5.84882 6.41671 4.58317C6.41671 3.31752 5.39069 2.2915 4.12504 2.2915C2.85939 2.2915 1.83337 3.31752 1.83337 4.58317C1.83337 5.84882 2.85939 6.87484 4.12504 6.87484Z" fill="#AC9D9D"/>
<path fill-rule="evenodd" clip-rule="evenodd" d="M16.4985 7.7915C15.2337 7.7915 14.2084 8.8134 14.2084 10.0849V13.1978C14.2084 13.4521 14.3996 13.7346 14.6359 13.8292L15.5834 14.2082L16.0034 19.2487C16.0246 19.5025 16.2494 19.7082 16.4987 19.7082H19.2514C19.5038 19.7082 19.7258 19.4993 19.7467 19.2487L20.1667 14.2082L21.1067 13.8949C21.3469 13.8148 21.5417 13.5447 21.5417 13.2922V10.0866C21.5417 8.81906 20.5143 7.7915 19.2516 7.7915H16.4985Z" fill="#D0C7C7"/>
<path fill-rule="evenodd" clip-rule="evenodd" d="M2.74852 7.7915C1.48371 7.7915 0.458374 8.8134 0.458374 10.0849V13.1978C0.458374 13.4521 0.649562 13.7346 0.885895 13.8292L1.83337 14.2082L2.25342 19.2487C2.27456 19.5025 2.49935 19.7082 2.74868 19.7082H5.5014C5.75378 19.7082 5.97578 19.4993 5.99666 19.2487L6.41671 14.2082L7.35665 13.8949C7.59692 13.8148 7.79171 13.5447 7.79171 13.2922V10.0866C7.79171 8.81906 6.76432 7.7915 5.50156 7.7915H2.74852Z" fill="#AC9D9D"/>
<path d="M11 5.95825C12.5188 5.95825 13.75 4.72704 13.75 3.20825C13.75 1.68947 12.5188 0.458252 11 0.458252C9.48122 0.458252 8.25 1.68947 8.25 3.20825C8.25 4.72704 9.48122 5.95825 11 5.95825Z" fill="#D93954"/>
<path fill-rule="evenodd" clip-rule="evenodd" d="M9.16705 6.875C7.6481 6.875 6.41675 8.10243 6.41675 9.62653V13.7496C6.41675 14.0029 6.59924 14.2996 6.82362 14.4118L8.25008 15.125L8.71025 21.1214C8.72996 21.3593 8.92796 21.5417 9.16675 21.5417H12.8334C13.0722 21.5417 13.2702 21.3593 13.2899 21.1214L13.7212 15.0315L15.1608 14.3951C15.3942 14.292 15.5834 14.0045 15.5834 13.7496V9.62653C15.5834 8.1069 14.3567 6.875 12.8331 6.875H9.16705Z" fill="#D93954"/>
</svg>
