<svg width="24" height="25" viewBox="0 0 24 25" fill="none" xmlns="http://www.w3.org/2000/svg">
<path d="M20.5711 8.89941H3.29252C2.44408 8.89941 1.75378 9.7507 1.75378 10.7971V16.07C1.75378 16.3088 1.91066 16.5022 2.10426 16.5022H21.7593C21.9529 16.5022 22.1098 16.3088 22.1098 16.07V10.7971C22.1098 9.75076 21.4195 8.89941 20.5711 8.89941Z" fill="#AC9D9D"/>
<path d="M20.5712 8.89941H18.9284C19.7768 8.89941 20.4671 9.7507 20.4671 10.7971V16.07C20.4671 16.3088 20.3103 16.5022 20.1167 16.5022H21.7595C21.9531 16.5022 22.11 16.3088 22.11 16.07V10.7971C22.1099 9.75076 21.4196 8.89941 20.5712 8.89941Z" fill="#645959"/>
<path d="M9.24486 12.7625H5.55663C4.71381 12.7625 4.02814 13.6081 4.02814 14.6475V16.07C4.02814 16.3087 4.18501 16.5022 4.37861 16.5022H10.4228C10.6164 16.5022 10.7733 16.3087 10.7733 16.07V14.6475C10.7733 13.6081 10.0876 12.7625 9.24486 12.7625Z" fill="#D93954"/>
<path d="M18.3071 12.7625H14.6189C13.7761 12.7625 13.0905 13.6081 13.0905 14.6475V16.07C13.0905 16.3087 13.2473 16.5022 13.4409 16.5022H19.4851C19.6788 16.5022 19.8356 16.3087 19.8356 16.07V14.6475C19.8356 13.6081 19.15 12.7625 18.3071 12.7625Z" fill="#D93954"/>
<path d="M9.24482 12.7625H7.6745C8.51728 12.7625 9.20295 13.6081 9.20295 14.6475V16.07C9.20295 16.3087 9.04608 16.5022 8.85247 16.5022H10.4228C10.6164 16.5022 10.7733 16.3087 10.7733 16.07V14.6475C10.7733 13.6081 10.0876 12.7625 9.24482 12.7625Z" fill="#C93737"/>
<path d="M18.307 12.7625H16.7367C17.5795 12.7625 18.2652 13.6081 18.2652 14.6475V16.07C18.2652 16.3087 18.1083 16.5022 17.9147 16.5022H19.485C19.6786 16.5022 19.8355 16.3087 19.8355 16.07V14.6475C19.8355 13.6081 19.1498 12.7625 18.307 12.7625Z" fill="#C93737" fill-opacity="0.74"/>
<path d="M23.5132 18.7646H0.350476C0.15692 18.7646 0 18.9581 0 19.1969V24.5677C0 24.8065 0.15692 24.9999 0.350476 24.9999H23.5132C23.7068 24.9999 23.8637 24.8065 23.8637 24.5677V19.1969C23.8637 18.9582 23.7068 18.7646 23.5132 18.7646Z" fill="#645959"/>
<path d="M23.5132 18.7646H22.2515V19.1969V24.5677C22.2515 24.8065 22.0946 24.9999 21.901 24.9999H23.5132C23.7068 24.9999 23.8637 24.8065 23.8637 24.5677V19.1969C23.8637 18.9582 23.7068 18.7646 23.5132 18.7646Z" fill="#231F1B"/>
<path d="M21.8922 15.6377H1.97145C0.884415 15.6377 0 16.7284 0 18.0691V19.1971C0 19.4359 0.15692 19.6293 0.350476 19.6293H23.5132C23.7068 19.6293 23.8637 19.4359 23.8637 19.1971V18.0691C23.8637 16.7284 22.9793 15.6377 21.8922 15.6377Z" fill="#F3F1F1"/>
<path d="M21.8923 15.6377H20.28C21.3671 15.6377 22.2515 16.7284 22.2515 18.0691V19.1971V19.6293H23.5133C23.7068 19.6293 23.8638 19.4359 23.8638 19.1971V18.0691C23.8637 16.7284 22.9793 15.6377 21.8923 15.6377Z" fill="#E4D8D8"/>
<path d="M11.0088 7.50655H9.13183C8.99281 7.50655 8.86701 7.40523 8.81103 7.24835C8.7551 7.09142 8.77958 6.90861 8.87346 6.78223L10.2121 4.98094H9.30819C9.11459 4.98094 8.95772 4.78747 8.95772 4.5487C8.95772 4.30993 9.11459 4.11646 9.30819 4.11646H11.0088C11.1478 4.11646 11.2736 4.21777 11.3296 4.37459C11.3855 4.53152 11.361 4.71439 11.2672 4.84072L9.92849 6.64201H11.0088C11.2024 6.64201 11.3593 6.83548 11.3593 7.07425C11.3593 7.31308 11.2024 7.50655 11.0088 7.50655Z" fill="#D93954"/>
<path d="M16.2279 4.9344H13.2033C13.0643 4.9344 12.9385 4.83308 12.8825 4.67627C12.8266 4.51933 12.851 4.33647 12.9449 4.21014L15.4313 0.864481H13.3804C13.1868 0.864481 13.0299 0.67101 13.0299 0.432241C13.0299 0.193471 13.1868 0 13.3804 0H16.2279C16.3669 0 16.4927 0.101317 16.5487 0.258134C16.6047 0.415066 16.5802 0.597933 16.4863 0.724262L14 4.06992H16.2279C16.4215 4.06992 16.5784 4.26339 16.5784 4.50216C16.5784 4.74093 16.4215 4.9344 16.2279 4.9344Z" fill="#D93954"/>
</svg>
