<svg width="200" height="200" viewBox="0 0 200 200" fill="none" xmlns="http://www.w3.org/2000/svg">
<circle cx="100" cy="100" r="100" fill="#D93954"/>
<path d="M38.3737 126.75C35.0737 126.75 31.8487 126.225 28.6987 125.175C25.5487 124.125 22.8487 122.625 20.5987 120.675L24.3487 114.375C26.7487 116.075 29.0737 117.375 31.3237 118.275C33.6237 119.125 35.8987 119.55 38.1487 119.55C40.1487 119.55 41.7237 119.175 42.8737 118.425C44.0237 117.675 44.5987 116.6 44.5987 115.2C44.5987 113.8 43.9237 112.775 42.5737 112.125C41.2237 111.475 39.0237 110.725 35.9737 109.875C33.4237 109.175 31.2487 108.5 29.4487 107.85C27.6487 107.2 26.1987 106.475 25.0987 105.675C23.9987 104.825 23.1987 103.875 22.6987 102.825C22.1987 101.725 21.9487 100.425 21.9487 98.925C21.9487 96.925 22.3237 95.125 23.0737 93.525C23.8737 91.925 24.9737 90.575 26.3737 89.475C27.7737 88.325 29.3987 87.45 31.2487 86.85C33.1487 86.25 35.1987 85.95 37.3987 85.95C40.3487 85.95 43.0987 86.375 45.6487 87.225C48.2487 88.075 50.6237 89.45 52.7737 91.35L48.7237 97.425C46.7237 95.925 44.7737 94.825 42.8737 94.125C41.0237 93.425 39.1737 93.075 37.3237 93.075C35.6237 93.075 34.1987 93.425 33.0487 94.125C31.8987 94.825 31.3237 95.95 31.3237 97.5C31.3237 98.2 31.4487 98.775 31.6987 99.225C31.9987 99.675 32.4487 100.075 33.0487 100.425C33.6487 100.775 34.4237 101.125 35.3737 101.475C36.3737 101.775 37.5987 102.1 39.0487 102.45C41.7487 103.15 44.0487 103.85 45.9487 104.55C47.8987 105.25 49.4737 106.05 50.6737 106.95C51.9237 107.85 52.8237 108.9 53.3737 110.1C53.9737 111.25 54.2737 112.65 54.2737 114.3C54.2737 118.15 52.8487 121.2 49.9987 123.45C47.1487 125.65 43.2737 126.75 38.3737 126.75ZM71.3639 126.75C69.4639 126.75 67.6889 126.45 66.0389 125.85C64.3889 125.2 62.9639 124.325 61.7639 123.225C60.5639 122.075 59.6139 120.75 58.9139 119.25C58.2639 117.75 57.9389 116.1 57.9389 114.3C57.9389 112.45 58.3389 110.75 59.1389 109.2C59.9889 107.6 61.1389 106.25 62.5889 105.15C64.0889 104.05 65.8639 103.2 67.9139 102.6C69.9639 101.95 72.2139 101.625 74.6639 101.625C76.4139 101.625 78.1139 101.775 79.7639 102.075C81.4639 102.375 82.9639 102.8 84.2639 103.35V101.1C84.2639 98.5 83.5139 96.5 82.0139 95.1C80.5639 93.7 78.3889 93 75.4889 93C73.3889 93 71.3389 93.375 69.3389 94.125C67.3389 94.875 65.2889 95.975 63.1889 97.425L60.1139 91.05C65.1639 87.7 70.6139 86.025 76.4639 86.025C82.1139 86.025 86.4889 87.425 89.5889 90.225C92.7389 92.975 94.3139 96.975 94.3139 102.225V114.45C94.3139 115.5 94.4889 116.25 94.8389 116.7C95.2389 117.15 95.8639 117.4 96.7139 117.45V126C95.0139 126.35 93.5389 126.525 92.2889 126.525C90.3889 126.525 88.9139 126.1 87.8639 125.25C86.8639 124.4 86.2389 123.275 85.9889 121.875L85.7639 119.7C84.0139 122 81.8889 123.75 79.3889 124.95C76.8889 126.15 74.2139 126.75 71.3639 126.75ZM74.2139 119.4C75.9139 119.4 77.5139 119.1 79.0139 118.5C80.5639 117.9 81.7639 117.1 82.6139 116.1C83.7139 115.25 84.2639 114.3 84.2639 113.25V108.75C83.0639 108.3 81.7639 107.95 80.3639 107.7C78.9639 107.4 77.6139 107.25 76.3139 107.25C73.7139 107.25 71.5889 107.85 69.9389 109.05C68.2889 110.2 67.4639 111.675 67.4639 113.475C67.4639 115.175 68.1139 116.6 69.4139 117.75C70.7139 118.85 72.3139 119.4 74.2139 119.4ZM113.09 126L98.615 86.7H108.965L118.94 117.825L128.99 86.7H138.44L123.965 126H113.09ZM153.285 126.75C151.385 126.75 149.61 126.45 147.96 125.85C146.31 125.2 144.885 124.325 143.685 123.225C142.485 122.075 141.535 120.75 140.835 119.25C140.185 117.75 139.86 116.1 139.86 114.3C139.86 112.45 140.26 110.75 141.06 109.2C141.91 107.6 143.06 106.25 144.51 105.15C146.01 104.05 147.785 103.2 149.835 102.6C151.885 101.95 154.135 101.625 156.585 101.625C158.335 101.625 160.035 101.775 161.685 102.075C163.385 102.375 164.885 102.8 166.185 103.35V101.1C166.185 98.5 165.435 96.5 163.935 95.1C162.485 93.7 160.31 93 157.41 93C155.31 93 153.26 93.375 151.26 94.125C149.26 94.875 147.21 95.975 145.11 97.425L142.035 91.05C147.085 87.7 152.535 86.025 158.385 86.025C164.035 86.025 168.41 87.425 171.51 90.225C174.66 92.975 176.235 96.975 176.235 102.225V114.45C176.235 115.5 176.41 116.25 176.76 116.7C177.16 117.15 177.785 117.4 178.635 117.45V126C176.935 126.35 175.46 126.525 174.21 126.525C172.31 126.525 170.835 126.1 169.785 125.25C168.785 124.4 168.16 123.275 167.91 121.875L167.685 119.7C165.935 122 163.81 123.75 161.31 124.95C158.81 126.15 156.135 126.75 153.285 126.75ZM156.135 119.4C157.835 119.4 159.435 119.1 160.935 118.5C162.485 117.9 163.685 117.1 164.535 116.1C165.635 115.25 166.185 114.3 166.185 113.25V108.75C164.985 108.3 163.685 107.95 162.285 107.7C160.885 107.4 159.535 107.25 158.235 107.25C155.635 107.25 153.51 107.85 151.86 109.05C150.21 110.2 149.385 111.675 149.385 113.475C149.385 115.175 150.035 116.6 151.335 117.75C152.635 118.85 154.235 119.4 156.135 119.4Z" fill="white"/>
</svg>
