<svg width="212" height="55" viewBox="0 0 212 55" fill="none" xmlns="http://www.w3.org/2000/svg">
<path d="M23.9 55C19.5 55 15.2 54.3 11 52.9C6.8 51.5 3.2 49.5 0.2 46.9L5.2 38.5C8.4 40.7667 11.5 42.5 14.5 43.7C17.5667 44.8333 20.6 45.4 23.6 45.4C26.2667 45.4 28.3667 44.9 29.9 43.9C31.4333 42.9 32.2 41.4667 32.2 39.6C32.2 37.7333 31.3 36.3667 29.5 35.5C27.7 34.6333 24.7667 33.6333 20.7 32.5C17.3 31.5667 14.4 30.6667 12 29.8C9.6 28.9333 7.66667 27.9667 6.2 26.9C4.73333 25.7667 3.66667 24.5 3 23.1C2.33333 21.6333 2 19.9 2 17.9C2 15.2333 2.5 12.8333 3.5 10.7C4.56667 8.56666 6.03333 6.76666 7.9 5.3C9.76667 3.76666 11.9333 2.6 14.4 1.8C16.9333 0.999997 19.6667 0.599996 22.6 0.599996C26.5333 0.599996 30.2 1.16666 33.6 2.3C37.0667 3.43333 40.2333 5.26667 43.1 7.8L37.7 15.9C35.0333 13.9 32.4333 12.4333 29.9 11.5C27.4333 10.5667 24.9667 10.1 22.5 10.1C20.2333 10.1 18.3333 10.5667 16.8 11.5C15.2667 12.4333 14.5 13.9333 14.5 16C14.5 16.9333 14.6667 17.7 15 18.3C15.4 18.9 16 19.4333 16.8 19.9C17.6 20.3667 18.6333 20.8333 19.9 21.3C21.2333 21.7 22.8667 22.1333 24.8 22.6C28.4 23.5333 31.4667 24.4667 34 25.4C36.6 26.3333 38.7 27.4 40.3 28.6C41.9667 29.8 43.1667 31.2 43.9 32.8C44.7 34.3333 45.1 36.2 45.1 38.4C45.1 43.5333 43.2 47.6 39.4 50.6C35.6 53.5333 30.4333 55 23.9 55ZM67.942 55C65.4087 55 63.042 54.6 60.842 53.8C58.642 52.9333 56.742 51.7667 55.142 50.3C53.542 48.7667 52.2754 47 51.342 45C50.4754 43 50.042 40.8 50.042 38.4C50.042 35.9333 50.5754 33.6667 51.642 31.6C52.7754 29.4667 54.3087 27.6667 56.242 26.2C58.242 24.7333 60.6087 23.6 63.342 22.8C66.0754 21.9333 69.0754 21.5 72.342 21.5C74.6754 21.5 76.942 21.7 79.142 22.1C81.4087 22.5 83.4087 23.0667 85.142 23.8V20.8C85.142 17.3333 84.142 14.6667 82.142 12.8C80.2087 10.9333 77.3087 10 73.442 10C70.642 10 67.9087 10.5 65.242 11.5C62.5754 12.5 59.842 13.9667 57.042 15.9L52.942 7.4C59.6754 2.93333 66.942 0.699995 74.742 0.699995C82.2754 0.699995 88.1087 2.56666 92.242 6.3C96.442 9.96666 98.542 15.3 98.542 22.3V38.6C98.542 40 98.7754 41 99.242 41.6C99.7754 42.2 100.609 42.5333 101.742 42.6V54C99.4754 54.4667 97.5087 54.7 95.842 54.7C93.3087 54.7 91.342 54.1333 89.942 53C88.6087 51.8667 87.7754 50.3667 87.442 48.5L87.142 45.6C84.8087 48.6667 81.9754 51 78.642 52.6C75.3087 54.2 71.742 55 67.942 55ZM71.742 45.2C74.0087 45.2 76.142 44.8 78.142 44C80.2087 43.2 81.8087 42.1333 82.942 40.8C84.4087 39.6667 85.142 38.4 85.142 37V31C83.542 30.4 81.8087 29.9333 79.942 29.6C78.0754 29.2 76.2754 29 74.542 29C71.0754 29 68.242 29.8 66.042 31.4C63.842 32.9333 62.742 34.9 62.742 37.3C62.742 39.5667 63.6087 41.4667 65.342 43C67.0754 44.4667 69.2087 45.2 71.742 45.2ZM123.632 54L104.332 1.6H118.132L131.432 43.1L144.832 1.6H157.432L138.132 54H123.632ZM177.28 55C174.747 55 172.38 54.6 170.18 53.8C167.98 52.9333 166.08 51.7667 164.48 50.3C162.88 48.7667 161.613 47 160.68 45C159.813 43 159.38 40.8 159.38 38.4C159.38 35.9333 159.913 33.6667 160.98 31.6C162.113 29.4667 163.647 27.6667 165.58 26.2C167.58 24.7333 169.947 23.6 172.68 22.8C175.413 21.9333 178.413 21.5 181.68 21.5C184.013 21.5 186.28 21.7 188.48 22.1C190.747 22.5 192.747 23.0667 194.48 23.8V20.8C194.48 17.3333 193.48 14.6667 191.48 12.8C189.547 10.9333 186.647 10 182.78 10C179.98 10 177.247 10.5 174.58 11.5C171.913 12.5 169.18 13.9667 166.38 15.9L162.28 7.4C169.013 2.93333 176.28 0.699995 184.08 0.699995C191.613 0.699995 197.447 2.56666 201.58 6.3C205.78 9.96666 207.88 15.3 207.88 22.3V38.6C207.88 40 208.113 41 208.58 41.6C209.113 42.2 209.947 42.5333 211.08 42.6V54C208.813 54.4667 206.847 54.7 205.18 54.7C202.647 54.7 200.68 54.1333 199.28 53C197.947 51.8667 197.113 50.3667 196.78 48.5L196.48 45.6C194.147 48.6667 191.313 51 187.98 52.6C184.647 54.2 181.08 55 177.28 55ZM181.08 45.2C183.347 45.2 185.48 44.8 187.48 44C189.547 43.2 191.147 42.1333 192.28 40.8C193.747 39.6667 194.48 38.4 194.48 37V31C192.88 30.4 191.147 29.9333 189.28 29.6C187.413 29.2 185.613 29 183.88 29C180.413 29 177.58 29.8 175.38 31.4C173.18 32.9333 172.08 34.9 172.08 37.3C172.08 39.5667 172.947 41.4667 174.68 43C176.413 44.4667 178.547 45.2 181.08 45.2Z" fill="#D93954"/>
</svg>
