<svg width="39" height="29" viewBox="0 0 39 29" fill="none" xmlns="http://www.w3.org/2000/svg">
<path d="M33 13C33 18.5228 28.5228 23 23 23C17.4772 23 13 18.5228 13 13C13 7.47715 17.4772 3 23 3C28.5228 3 33 7.47715 33 13Z" fill="#F1DFE2"/>
<path d="M17.9385 24.5656C17.7594 24.5656 17.6119 24.4231 17.6067 24.243C17.6015 24.0597 17.7458 23.907 17.9291 23.9018C18.1128 23.8934 18.267 24.0355 18.2751 24.2188C18.2833 24.4019 18.141 24.557 17.9577 24.5651L17.9481 24.5654C17.9449 24.5656 17.9417 24.5656 17.9385 24.5656V24.5656ZM16.6035 24.5156C16.5904 24.5156 16.5775 24.5149 16.5642 24.5134L16.5634 24.5132C16.3809 24.4949 16.2488 24.3325 16.2671 24.1498C16.2854 23.9674 16.4492 23.8346 16.6315 23.8528L16.6418 23.8538C16.8239 23.8752 16.9541 24.0402 16.9326 24.2224C16.9128 24.3914 16.7695 24.5156 16.6035 24.5156V24.5156ZM19.2706 24.4132C19.1151 24.4132 18.9763 24.3036 18.9453 24.1453C18.9097 23.9654 19.0269 23.7908 19.2068 23.7554L19.213 23.7542C19.3931 23.7198 19.567 23.838 19.6014 24.0181C19.6358 24.198 19.5178 24.3721 19.3377 24.4065L19.3352 24.407C19.3134 24.4112 19.2919 24.4132 19.2706 24.4132V24.4132ZM15.2862 24.2626C15.2574 24.2626 15.228 24.2588 15.1986 24.2509L15.1968 24.2504C15.0197 24.2032 14.9139 24.0214 14.9609 23.8444C15.0079 23.6671 15.1895 23.5615 15.3666 23.6084L15.3735 23.6102C15.5504 23.6586 15.6546 23.841 15.6063 24.0179C15.566 24.1656 15.4322 24.2626 15.2862 24.2626ZM20.5643 24.0585C20.4285 24.0585 20.3013 23.9749 20.2521 23.84C20.1895 23.6676 20.2785 23.4771 20.4507 23.4145L20.4562 23.4127C20.6286 23.3507 20.8188 23.4402 20.8809 23.6127C20.943 23.7853 20.8532 23.9754 20.6806 24.0376L20.6778 24.0386C20.6402 24.0522 20.6019 24.0585 20.5643 24.0585ZM14.0217 23.8098C13.9763 23.8098 13.9304 23.8004 13.8862 23.7804L13.8817 23.7784C13.7147 23.7027 13.6407 23.506 13.7164 23.339C13.7921 23.172 13.9886 23.0979 14.1558 23.1736C14.3229 23.2492 14.399 23.4466 14.3236 23.6137C14.2681 23.7368 14.1479 23.8098 14.0217 23.8098ZM21.7873 23.5098C21.6684 23.5098 21.5538 23.4461 21.494 23.3341C21.4076 23.1723 21.4689 22.9711 21.6307 22.8848C21.7913 22.7965 21.9932 22.8551 22.0817 23.0157C22.17 23.1763 22.1115 23.3782 21.9507 23.4665L21.9432 23.4707C21.8933 23.4973 21.84 23.5098 21.7873 23.5098ZM24.8026 20.542L24.8048 20.5435L24.7697 20.5185L24.8026 20.542ZM9.47688 19.0948C9.34579 19.0948 9.22158 19.0166 9.16905 18.8877L9.16821 18.8853C9.09822 18.7158 9.17895 18.5216 9.34831 18.4518C9.51783 18.3818 9.71203 18.4625 9.78186 18.6319L9.78421 18.6378C9.85336 18.8076 9.77145 19.0013 9.60159 19.0703C9.5608 19.0869 9.51834 19.0948 9.47688 19.0948V19.0948ZM25.9567 18.4577C25.922 18.4577 25.8866 18.4521 25.8517 18.4405C25.679 18.383 25.585 18.197 25.6405 18.0239C25.6947 17.8495 25.8797 17.751 26.0544 17.8041C26.2298 17.8574 26.3289 18.0422 26.2758 18.2175L26.2716 18.2306C26.2253 18.3697 26.0957 18.4577 25.9567 18.4577ZM9.07086 17.8166C8.92064 17.8166 8.78451 17.7141 8.74809 17.5617L8.74708 17.5573C8.70462 17.3789 8.81456 17.1998 8.99298 17.1572C9.1714 17.1145 9.35049 17.2247 9.39296 17.4031L9.39396 17.4074C9.4366 17.5857 9.32649 17.7648 9.14824 17.8074C9.12222 17.8136 9.09637 17.8166 9.07086 17.8166ZM26.2621 17.1518C26.2429 17.1518 26.2236 17.1501 26.204 17.1466C26.0247 17.1151 25.9045 16.9449 25.9341 16.7658C25.9619 16.5853 26.1303 16.4608 26.3109 16.4873C26.4922 16.5142 26.6176 16.6822 26.5909 16.8636L26.5887 16.8774C26.5603 17.0383 26.4202 17.1518 26.2621 17.1518V17.1518ZM8.86592 16.4907C8.69555 16.4907 8.5507 16.3607 8.5356 16.188L8.53459 16.1743C8.52385 15.9911 8.66349 15.8342 8.84662 15.8233C9.02806 15.8122 9.18466 15.9504 9.19725 16.1316C9.21185 16.3136 9.0769 16.4739 8.89479 16.4895C8.88505 16.4903 8.87549 16.4907 8.86592 16.4907V16.4907ZM26.3638 15.8146C26.1803 15.8146 26.0318 15.666 26.0318 15.4826V15.4782C26.0318 15.4759 26.0318 15.4735 26.0318 15.4713C26.0318 15.4685 26.0318 15.4655 26.0318 15.4626V15.4582C26.0318 15.2748 26.1803 15.1261 26.3638 15.1261C26.5471 15.1261 26.6958 15.2748 26.6958 15.4582V15.4626C26.6958 15.465 26.6958 15.4673 26.6956 15.4695C26.6958 15.4723 26.6958 15.4752 26.6958 15.4782V15.4826C26.6958 15.666 26.5472 15.8146 26.3638 15.8146ZM8.86508 15.1502C8.85551 15.1502 8.84578 15.1497 8.83604 15.1489C8.65359 15.1331 8.51848 14.9727 8.53392 14.7904C8.54667 14.6091 8.70176 14.471 8.88455 14.4824C9.06767 14.4931 9.20732 14.6502 9.19658 14.8332L9.1954 14.8469C9.18046 15.0198 9.03544 15.1502 8.86508 15.1502ZM26.2595 14.4577C26.1014 14.4577 25.9614 14.3444 25.9331 14.1833L25.9307 14.1695C25.9042 13.9881 26.0296 13.8194 26.211 13.7927C26.3915 13.766 26.5605 13.8911 26.5875 14.072C26.6169 14.2509 26.4969 14.4208 26.3176 14.4525C26.2981 14.456 26.2787 14.4577 26.2595 14.4577ZM26.3153 14.1129L26.2592 14.1212L26.3153 14.1129ZM9.06649 13.8246C9.04098 13.8246 9.01497 13.8216 8.98912 13.8154C8.81103 13.7729 8.70092 13.5941 8.74305 13.416C8.78233 13.239 8.95706 13.1258 9.13514 13.1631C9.31457 13.2007 9.42971 13.3766 9.39212 13.556L9.3891 13.5696C9.35284 13.722 9.21672 13.8246 9.06649 13.8246ZM25.9549 13.1539C25.8152 13.1539 25.6848 13.0646 25.6383 12.9251L25.6346 12.9135C25.5806 12.7383 25.679 12.5525 25.8544 12.4986C26.0298 12.4445 26.2152 12.5429 26.2693 12.7183L26.2694 12.7188C26.3273 12.8929 26.2328 13.079 26.0588 13.1369C26.0245 13.1485 25.9895 13.1539 25.9549 13.1539V13.1539ZM9.46899 12.5444C9.42736 12.5444 9.38507 12.5365 9.34411 12.5199C9.17425 12.4509 9.09251 12.2572 9.1615 12.0874L9.16317 12.0833C9.23216 11.9135 9.42569 11.8316 9.59572 11.9006C9.76558 11.9695 9.84732 12.1632 9.77833 12.3331L9.77665 12.3373C9.72429 12.4662 9.60008 12.5444 9.46899 12.5444ZM25.4514 11.9103C25.3305 11.9103 25.2137 11.844 25.1546 11.7295L25.1496 11.7198C25.0687 11.5551 25.1365 11.3562 25.3011 11.2753C25.4656 11.1944 25.6645 11.2622 25.7456 11.4267L25.7458 11.4274C25.83 11.5902 25.7654 11.7893 25.6024 11.8734C25.5541 11.8984 25.5024 11.9103 25.4514 11.9103ZM10.0635 11.3416C10.0046 11.3416 9.94484 11.326 9.89096 11.293C9.73469 11.1978 9.68518 10.9942 9.77968 10.8379C9.87115 10.6817 10.0717 10.6273 10.2298 10.7169C10.3893 10.8074 10.4454 11.01 10.3551 11.1694C10.3525 11.1738 10.3499 11.1781 10.3472 11.1825C10.2847 11.2851 10.1755 11.3416 10.0635 11.3416ZM24.762 10.7585C24.6558 10.7585 24.5512 10.7075 24.4871 10.613C24.3805 10.4638 24.4159 10.2578 24.5653 10.1513C24.7143 10.0447 24.9228 10.0808 25.0294 10.23L25.0364 10.2401C25.1393 10.3918 25.0999 10.5982 24.9481 10.7013C24.8911 10.7401 24.8263 10.7585 24.762 10.7585ZM10.8349 10.2441C10.7601 10.2441 10.685 10.2189 10.6229 10.1675C10.4819 10.0504 10.4625 9.84108 10.5796 9.69992L10.5825 9.69656C10.6996 9.5554 10.9088 9.5361 11.0499 9.65309C11.1911 9.77025 11.2106 9.97955 11.0934 10.1207L11.0906 10.1241C11.0249 10.2033 10.9303 10.2441 10.8349 10.2441ZM23.9067 9.7256C23.8194 9.7256 23.7323 9.69153 23.6671 9.62355C23.5387 9.49263 23.5406 9.28198 23.6717 9.15358C23.8024 9.02534 24.0124 9.02719 24.1406 9.15811L24.1462 9.16365C24.2732 9.29591 24.2689 9.50623 24.1366 9.63312C24.0722 9.69505 23.9894 9.7256 23.9067 9.7256ZM11.7641 9.27661C11.6721 9.27661 11.5808 9.23885 11.5152 9.16466C11.3937 9.02736 11.4066 8.81755 11.5439 8.69603L11.5453 8.69485C11.6817 8.57283 11.8917 8.58391 12.0141 8.72037C12.1362 8.85666 12.1255 9.06596 11.9894 9.18849L11.984 9.19336C11.9207 9.24925 11.8422 9.27661 11.7641 9.27661ZM22.9041 8.83434C22.836 8.83434 22.7675 8.81352 22.7082 8.77022L22.697 8.76166C22.5523 8.64903 22.5261 8.44057 22.6387 8.29571C22.7512 8.1512 22.9592 8.12501 23.1038 8.23697C23.2489 8.3459 23.2798 8.55168 23.1723 8.69838C23.1072 8.78734 23.0063 8.83434 22.9041 8.83434ZM22.934 8.45702L22.9008 8.49965L22.934 8.45702ZM12.8289 8.46155C12.7193 8.46155 12.6121 8.40733 12.5488 8.30814C12.4503 8.15372 12.4954 7.94894 12.6494 7.85008C12.8007 7.75005 13.005 7.79016 13.1071 7.94072C13.2101 8.09245 13.1705 8.2989 13.0188 8.40179L13.0072 8.40951C12.952 8.44476 12.8902 8.46155 12.8289 8.46155ZM21.777 8.10554C21.7247 8.10554 21.6714 8.09312 21.6219 8.06677L21.614 8.06241C21.4534 7.97412 21.3948 7.7722 21.4831 7.61157C21.5714 7.45094 21.7733 7.39236 21.934 7.48065L21.935 7.48116C22.0953 7.5686 22.1559 7.76985 22.0692 7.93065C22.0092 8.0421 21.895 8.10554 21.777 8.10554ZM14.0054 7.81836C13.8788 7.81836 13.7578 7.74568 13.7024 7.62299C13.6269 7.45598 13.7011 7.25943 13.8681 7.1839L13.8758 7.18054C14.0437 7.10686 14.2394 7.18356 14.313 7.35158C14.3864 7.51959 14.3099 7.7153 14.1418 7.78882C14.0975 7.80879 14.051 7.81836 14.0054 7.81836Z" fill="#AC9D9D"/>
<path d="M20.1706 21.9233L15.172 16.9247C14.8586 16.6115 14.8583 16.1046 15.1711 15.7919C15.2947 15.6684 15.4491 15.5935 15.6096 15.5682C15.8544 15.5287 16.1144 15.6034 16.3039 15.7929L15.0167 14.5057C14.8603 14.3493 14.7817 14.1441 14.7817 13.9395C14.7817 13.8969 14.7851 13.8541 14.792 13.8115C14.8177 13.6507 14.8922 13.4966 15.0159 13.3729C15.1382 13.2505 15.29 13.1763 15.4484 13.15C15.6641 13.1141 15.8914 13.1666 16.0725 13.3078L15.5827 12.818C15.4261 12.6614 15.3475 12.4558 15.3475 12.251C15.3472 12.2075 15.3511 12.1637 15.3583 12.1209C15.384 11.9611 15.4583 11.8079 15.5814 11.6849C15.7051 11.5612 15.8593 11.4863 16.0206 11.4609C16.2653 11.4215 16.5255 11.4964 16.7148 11.6857L17.2758 12.2466C17.0868 12.0576 17.0116 11.7971 17.051 11.5524C17.0764 11.3918 17.1509 11.2377 17.2749 11.1138C17.5873 10.8015 18.0947 10.8018 18.4077 11.1148L21.6562 14.3634L21.6653 14.3504C21.83 14.1858 22.024 14.0688 22.2309 13.999C22.7417 13.8267 23.3297 13.9444 23.7372 14.3521L25.2518 15.8668C25.5431 16.1578 25.7064 16.5522 25.707 16.9635L25.7079 17.9111C25.7082 18.3539 25.8845 18.7787 26.1982 19.0924L26.5359 19.4301L22.6725 23.2935L22.2408 22.8618C21.9538 22.5747 21.572 22.4019 21.1673 22.3753C20.7913 22.3507 20.4373 22.19 20.1706 21.9233Z" fill="#EAD8C5"/>
<path d="M22.4215 23.5444L26.8067 19.1592C26.9512 19.0147 27.1853 19.0147 27.3298 19.1592L28.8915 20.7209C29.036 20.8654 29.036 21.0997 28.8915 21.2441L24.5065 25.6292C24.362 25.7737 24.1277 25.7737 23.9833 25.6292L22.4215 24.0676C22.2771 23.9231 22.2771 23.6887 22.4215 23.5444V23.5444Z" fill="#C5BEBE"/>
<path d="M26.9235 21.1276C27.0532 21.2573 27.2632 21.2575 27.3926 21.1281C27.522 20.9987 27.5218 20.7885 27.3923 20.659C27.2625 20.5292 27.0525 20.529 26.9231 20.6585C26.7937 20.788 26.7939 20.998 26.9235 21.1276V21.1276Z" fill="#FDFDFD"/>
<path d="M22.7748 15.4817L21.6562 14.3634L21.6653 14.3504C21.83 14.1858 22.024 14.0688 22.231 13.999L23.2442 15.0123C23.3738 15.1418 23.3738 15.3521 23.2442 15.4817C23.1143 15.6116 22.9044 15.6113 22.7748 15.4817Z" fill="#E0BF9C"/>
<path d="M15.8291 21.9239L20.8278 16.9252C21.1411 16.6119 21.1415 16.1051 20.8288 15.7924C20.7051 15.6687 20.5508 15.5939 20.3902 15.5685C20.1453 15.5291 19.8853 15.6039 19.6958 15.7933L20.983 14.5062C21.1395 14.3498 21.218 14.1447 21.218 13.9399C21.218 13.8974 21.2146 13.8545 21.2078 13.812C21.1821 13.651 21.1076 13.4971 20.9839 13.3734C20.8615 13.2511 20.7098 13.1769 20.5513 13.1505C20.3356 13.1146 20.1084 13.1671 19.9273 13.3083L20.417 12.8184C20.5736 12.6619 20.6522 12.4563 20.6522 12.2515C20.6525 12.2079 20.6487 12.1641 20.6414 12.1213C20.6159 11.9617 20.5414 11.8083 20.4184 11.6852C20.2947 11.5617 20.1404 11.4868 19.9791 11.4615C19.7344 11.422 19.4742 11.4967 19.2849 11.6862L18.724 12.2472C18.913 12.058 18.9882 11.7977 18.9487 11.5528C18.9234 11.3923 18.8488 11.2382 18.7248 11.1142C18.4124 10.8018 17.905 10.8022 17.592 11.1152L14.3435 14.3637L14.3344 14.351C14.1698 14.1863 13.9758 14.0693 13.7688 13.9995C13.2579 13.8273 12.6701 13.9449 12.2625 14.3525L10.7479 15.8673C10.4567 16.1583 10.2934 16.5528 10.2927 16.964L10.2917 17.9115C10.2915 18.3544 10.1153 18.7793 9.80157 19.093L9.46387 19.4307L13.3272 23.294L13.7589 22.8623C14.0459 22.5753 14.4278 22.4024 14.8324 22.3759C15.2084 22.3512 15.5624 22.1906 15.8291 21.9239V21.9239Z" fill="#EAD8C5"/>
<path d="M13.5784 23.5447L9.19321 19.1597C9.04869 19.0152 8.81455 19.0152 8.67003 19.1597L7.10839 20.7214C6.96387 20.8659 6.96387 21.1 7.10839 21.2445L11.4934 25.6297C11.6379 25.7742 11.8722 25.7742 12.0167 25.6297L13.5784 24.0681C13.7229 23.9235 13.7229 23.6892 13.5784 23.5447Z" fill="#645959"/>
<path d="M12.0817 24.1329C12.2114 24.0031 12.2116 23.7931 12.0822 23.6637C11.9528 23.5342 11.7426 23.5343 11.6131 23.6641C11.4833 23.7936 11.4831 24.0038 11.6126 24.1332C11.7421 24.2626 11.9521 24.2624 12.0817 24.1329V24.1329Z" fill="white"/>
<path d="M13.2253 15.4822L14.3436 14.3637L14.3346 14.3509C14.1699 14.1863 13.9759 14.0693 13.7689 13.9995L12.7556 15.0126C12.6261 15.1422 12.6261 15.3526 12.7556 15.4822C12.8855 15.6121 13.0955 15.6118 13.2253 15.4822Z" fill="#E0BF9C"/>
<path d="M21.197 9.94409V17.0133C21.197 17.4564 20.839 17.8149 20.3967 17.8149C20.2218 17.8149 20.0598 17.7587 19.9282 17.663C19.7273 17.5178 19.5962 17.281 19.5962 17.0133V18.8336C19.5962 19.0548 19.5068 19.2554 19.3621 19.4001C19.332 19.4303 19.2991 19.4581 19.2642 19.4833C19.1323 19.579 18.9708 19.6352 18.7959 19.6352C18.6229 19.6352 18.4629 19.5803 18.3324 19.487C18.1544 19.36 18.0309 19.1621 18.0027 18.934V19.6268C18.0027 19.8482 17.9127 20.0491 17.7681 20.1938C17.7375 20.2249 17.7038 20.2532 17.6685 20.2784C17.5374 20.3732 17.3763 20.429 17.2022 20.429C17.0275 20.429 16.8654 20.3727 16.7334 20.2767C16.5325 20.1315 16.4014 19.8947 16.4014 19.6268V18.8336C16.4014 19.101 16.2705 19.3381 16.0694 19.4833C15.938 19.579 15.7764 19.6352 15.6012 19.6352C15.1592 19.6352 14.8007 19.2762 14.8007 18.8336V14.2395L14.7852 14.2421C14.5524 14.2421 14.3324 14.1876 14.1367 14.0907C13.6538 13.8512 13.3213 13.3524 13.3213 12.776V10.6338C13.3213 10.2222 13.4846 9.82777 13.775 9.53639L14.4444 8.86584C14.7574 8.55231 14.9331 8.12749 14.9331 7.68387V7.20618H20.3965V7.81664C20.3965 8.22249 20.5444 8.61475 20.8118 8.91972C21.0602 9.20305 21.197 9.56694 21.197 9.94409V9.94409Z" fill="#FEDFC5"/>
<path d="M20.8288 15.7924C20.7051 15.6687 20.5508 15.594 20.3902 15.5685C20.1453 15.5291 19.8853 15.6039 19.6958 15.7934L20.983 14.5062C21.1395 14.3498 21.2182 14.1447 21.2182 13.9401C21.2182 13.8974 21.2146 13.8545 21.2078 13.812C21.1821 13.651 21.1077 13.4971 20.984 13.3734C20.8617 13.2511 20.7098 13.1769 20.5515 13.1505C20.3358 13.1146 20.1085 13.1671 19.9273 13.3083L20.4172 12.8184C20.5736 12.6619 20.6522 12.4563 20.6522 12.2515C20.6525 12.2081 20.6488 12.1643 20.6416 12.1213C20.6159 11.9617 20.5414 11.8083 20.4184 11.6852C20.2948 11.5617 20.1404 11.4868 19.9793 11.4615C19.7346 11.422 19.4742 11.4969 19.2849 11.6862L18.724 12.2472C18.913 12.058 18.9882 11.7977 18.9487 11.5528C18.9234 11.3923 18.8488 11.2382 18.725 11.1142C18.4124 10.8018 17.905 10.8022 17.592 11.1152L14.3435 14.3637L14.3344 14.351C14.1698 14.1863 13.9758 14.0693 13.7688 13.9995C13.5237 13.9169 13.2611 13.9016 13.0088 13.9525C13.2119 14.2595 13.4959 14.5141 13.842 14.6858C13.938 14.7333 14.0363 14.7733 14.1367 14.8055V18.8336C14.1367 19.6418 14.7937 20.2993 15.601 20.2993C15.6982 20.2993 15.7939 20.2899 15.887 20.2714C15.9913 20.4844 16.1467 20.6719 16.3426 20.8134C16.4641 20.902 16.5967 20.9698 16.7362 21.0168L20.8278 16.9252C21.1411 16.6119 21.1415 16.1051 20.8288 15.7924Z" fill="#E0BF9C"/>
<path d="M21.8606 17.0133V14.1861C21.792 14.2343 21.7265 14.2892 21.6651 14.3504L21.656 14.3634L18.4075 11.1148C18.0945 10.8018 17.5871 10.8015 17.2747 11.1138C17.1507 11.2377 17.0761 11.3918 17.0508 11.5524C17.0113 11.7971 17.0865 12.0576 17.2755 12.2466L16.7146 11.6857C16.5253 11.4964 16.2651 11.4215 16.0204 11.4609C15.8591 11.4863 15.7048 11.5612 15.5811 11.6849C15.4581 11.8079 15.3836 11.9611 15.3579 12.1209C15.3508 12.1637 15.347 12.2075 15.3473 12.251C15.3473 12.4558 15.4259 12.6614 15.5825 12.818L16.0722 13.3078C15.891 13.1666 15.6639 13.1141 15.4482 13.15C15.2897 13.1763 15.138 13.2505 15.0156 13.3729C14.8919 13.4966 14.8174 13.6507 14.7917 13.8115C14.7849 13.8541 14.7813 13.8969 14.7815 13.9395C14.7813 14.1443 14.8601 14.3493 15.0165 14.5057L16.3037 15.7929C16.1144 15.6036 15.8542 15.5287 15.6095 15.5682C15.4489 15.5935 15.2944 15.6684 15.1709 15.7919C14.8582 16.1048 14.8585 16.6115 15.1717 16.9249L18.5205 20.2734C18.6104 20.2905 18.7024 20.2993 18.7956 20.2993C19.1059 20.2993 19.4027 20.2031 19.6524 20.022C19.716 19.976 19.7763 19.9248 19.8313 19.8697C20.1078 19.5933 20.26 19.2254 20.26 18.8336V18.4727C20.305 18.4769 20.3507 18.479 20.3963 18.479C21.2037 18.479 21.8606 17.8215 21.8606 17.0133V17.0133Z" fill="#E0BF9C"/>
<path d="M21.197 9.94409V17.0133C21.197 17.4564 20.839 17.8149 20.3967 17.8149C20.3848 17.8149 20.3719 17.8149 20.3591 17.8141C20.1991 17.8065 20.0509 17.7522 19.9292 17.6635C19.9287 17.6635 19.9287 17.663 19.9282 17.663C19.7273 17.5178 19.5962 17.281 19.5962 17.0133V18.8336C19.5962 19.0548 19.5068 19.2554 19.3621 19.4001C19.332 19.4303 19.2991 19.4581 19.2642 19.4833C19.1323 19.579 18.9708 19.6352 18.7959 19.6352C18.6229 19.6352 18.4629 19.5803 18.3324 19.487C18.1544 19.36 18.0309 19.1621 18.0027 18.934V19.6268C18.0027 19.8482 17.9127 20.0491 17.7681 20.1938C17.7375 20.2249 17.7038 20.2532 17.6685 20.2784C17.5374 20.3732 17.3763 20.429 17.2022 20.429C17.0275 20.429 16.8654 20.3727 16.7334 20.2767C16.5325 20.1315 16.4014 19.8947 16.4014 19.6268V18.8336C16.4014 19.101 16.2705 19.3381 16.0694 19.4833C15.938 19.579 15.7764 19.6352 15.6012 19.6352C15.1592 19.6352 14.8007 19.2762 14.8007 18.8336V14.2395L14.7852 14.2421C14.5524 14.2421 14.3324 14.1876 14.1367 14.0907C13.6538 13.8512 13.3213 13.3524 13.3213 12.776V10.6338C13.3213 10.2222 13.4846 9.82777 13.775 9.53639L14.4444 8.86584C14.6379 8.67198 14.779 8.43549 14.8583 8.17784C14.9079 8.01855 14.9331 7.85071 14.9331 7.68387V7.20618H20.3965V7.81664C20.3965 7.95343 20.4113 8.09778 20.4492 8.22954C20.513 8.48332 20.6371 8.72015 20.8118 8.91972C21.058 9.20087 21.197 9.56963 21.197 9.94409Z" fill="#FBE9D6"/>
<path d="M21.1969 9.94409V17.0133C21.1969 17.4564 20.8389 17.8149 20.3966 17.8149C20.3847 17.8149 20.3717 17.8149 20.359 17.8141C20.199 17.8065 20.0508 17.7522 19.9291 17.6635L19.9427 10.8516C19.9427 10.8105 19.9335 10.7454 19.9162 10.6626C19.6107 9.17468 18.3549 8.17784 16.8361 8.17784H14.8582C14.9078 8.01839 14.933 7.85071 14.933 7.68387V7.20618H20.3964V7.81664C20.3964 7.95343 20.4112 8.09778 20.4491 8.22954C20.5129 8.48332 20.6369 8.72015 20.8117 8.91972C21.0579 9.20087 21.1969 9.56963 21.1969 9.94409Z" fill="#EAD8C5"/>
<path d="M20.7517 7.20638H14.5501C14.3458 7.20638 14.1802 7.04071 14.1802 6.83644V4.62775C14.1802 4.42348 14.3458 4.25781 14.5501 4.25781H20.7517C20.956 4.25781 21.1216 4.42348 21.1216 4.62775V6.83644C21.1216 7.04071 20.956 7.20638 20.7517 7.20638Z" fill="#D93954"/>
<path d="M15.9328 5.73215C15.9328 5.54869 15.7844 5.40015 15.6013 5.40015C15.4182 5.40015 15.2698 5.54869 15.2698 5.73215C15.2698 5.91544 15.4182 6.06415 15.6013 6.06415C15.7844 6.06415 15.9328 5.91544 15.9328 5.73215Z" fill="white"/>
<path d="M19.9283 13.3138V17.6631C19.7272 17.5179 19.5962 17.281 19.5962 17.0132V18.8335C19.5962 19.0548 19.5069 19.2554 19.362 19.4001C19.332 19.4303 19.2992 19.4582 19.2642 19.4834V13.3138C19.2642 13.1305 19.413 12.9818 19.5962 12.9818C19.7794 12.9818 19.9283 13.1305 19.9283 13.3138V13.3138Z" fill="#E0BF9C"/>
<path d="M18.3325 13.3138V19.4869C18.1544 19.3598 18.031 19.1619 18.0026 18.934V19.6269C18.0026 19.8481 17.9128 20.0492 17.768 20.1938C17.7374 20.2249 17.7039 20.2531 17.6685 20.2784V13.3138C17.6685 13.1305 17.8172 12.9818 18.0005 12.9818C18.1837 12.9818 18.3325 13.1305 18.3325 13.3138V13.3138Z" fill="#E0BF9C"/>
<path d="M16.7333 13.3138V20.2766C16.5324 20.1314 16.4013 19.8946 16.4013 19.6269V18.8335C16.4013 19.1008 16.2704 19.3382 16.0693 19.4834V13.3138C16.0693 13.1305 16.2182 12.9818 16.4013 12.9818C16.5851 12.9818 16.7333 13.1305 16.7333 13.3138V13.3138Z" fill="#E0BF9C"/>
<path d="M14.8007 12.6577V14.2395L14.7851 14.242C14.5523 14.242 14.3323 14.1876 14.1367 14.0908V12.6577C14.1367 12.4744 14.2854 12.3257 14.4687 12.3257C14.6523 12.3257 14.8007 12.4744 14.8007 12.6577Z" fill="#E0BF9C"/>
</svg>
