<svg width="39" height="29" viewBox="0 0 39 29" fill="none" xmlns="http://www.w3.org/2000/svg">
<circle cx="23" cy="13" r="10" fill="#F1DFE2"/>
<g clip-path="url(#clip0)">
<path d="M24.531 14.5442C24.5913 11.9897 22.5626 9.82493 20.0076 9.79716C18.2969 9.77854 16.8004 10.6994 15.9998 12.0752C15.199 10.6994 13.7027 9.77839 11.9921 9.79716C9.43699 9.82493 7.40832 11.9897 7.46859 14.5442C7.60348 20.2524 14.4306 25.2173 15.7723 26.1388C15.9095 26.2331 16.0901 26.2331 16.2273 26.1388C17.569 25.2173 24.3961 20.2524 24.531 14.5442V14.5442Z" fill="#D93954"/>
<path d="M24.5333 14.3735C24.5333 20.1524 17.5842 25.2068 16.2275 26.1385C16.0902 26.2328 15.9093 26.2333 15.7719 26.139C15.4377 25.9095 14.7631 25.4291 13.9365 24.749C15.299 23.8127 22.2387 18.7613 22.2387 12.9858C22.2387 11.8127 21.7979 10.7425 21.0722 9.93359C23.0607 10.4315 24.5333 12.2297 24.5333 14.3735Z" fill="#AF2D43"/>
<path d="M15.9433 22.752C15.6952 22.752 15.482 22.5755 15.4359 22.3313L14.1752 15.6347L12.8338 18.8226C12.7557 19.0083 12.5769 19.1314 12.3756 19.1383C12.174 19.1451 11.9874 19.0342 11.8969 18.8543L11.5384 18.1416H6.51621C6.23117 18.1416 6 17.9104 6 17.6254C6 17.3402 6.23117 17.1092 6.51621 17.1092H11.8565C12.0506 17.1092 12.2282 17.218 12.3162 17.3907L13.8893 13.6527C13.9776 13.4426 14.1934 13.3154 14.4197 13.3396C14.6463 13.3637 14.8301 13.5334 14.8724 13.7574L15.9118 19.2794L16.342 16.6956C16.3833 16.4466 16.5986 16.2641 16.851 16.2641H18.5358C18.7103 16.2641 18.8731 16.3523 18.9683 16.4985L19.7594 17.7126L20.1005 17.2976C20.1987 17.1783 20.345 17.1092 20.4994 17.1092H25.4839C25.7689 17.1092 25.9999 17.3403 25.9999 17.6254C25.9999 17.9104 25.7689 18.1416 25.4839 18.1416H20.7434L20.1102 18.912C20.0058 19.0389 19.8469 19.1087 19.6829 19.0997C19.5186 19.0907 19.3686 19.0038 19.2789 18.8661L18.2562 17.2965H17.2885L16.4525 22.3205C16.4114 22.5674 16.199 22.7493 15.9488 22.7519C15.9469 22.7519 15.945 22.752 15.9433 22.752V22.752Z" fill="#F3F1F1"/>
</g>
<defs>
<clipPath id="clip0">
<rect width="20" height="20" fill="white" transform="translate(6 8)"/>
</clipPath>
</defs>
</svg>
