<svg width="42" height="30" viewBox="0 0 42 30" fill="none" xmlns="http://www.w3.org/2000/svg">
<circle cx="28" cy="11" r="10" fill="#F1DFE2"/>
<path d="M13.2654 24.683L12.7589 23.2411L11.317 22.7346L11.0076 24.449C10.9497 24.7701 11.2299 25.0503 11.551 24.9924L13.2654 24.683Z" fill="#444444"/>
<path d="M16.8312 24.0395L16.0036 19.9963L11.9604 19.1686L11.3169 22.7346L13.2653 24.683L16.8312 24.0395Z" fill="#EAD8C5"/>
<path d="M30.8632 9.34651L26.6537 5.13703C26.471 4.95432 26.1751 4.95432 25.9924 5.13703L23.186 7.94335L28.0569 12.8142L30.8632 10.0079C31.0459 9.82519 31.0459 9.52921 30.8632 9.34651Z" fill="#D93954"/>
<path d="M23.186 7.94333L11.9607 19.1686L14.7469 21.9548L25.9527 10.7101L23.186 7.94333Z" fill="#AC9D9D"/>
<path d="M25.6216 10.3787L14.3962 21.6041L16.8317 24.0395L28.057 12.8142L25.6216 10.3787Z" fill="#C5BEBE"/>
<path d="M23.5166 7.6126L22.8552 8.27399L27.7261 13.1449L28.3875 12.4835L23.5166 7.6126Z" fill="#C9514B"/>
</svg>
