<svg width="42" height="28" viewBox="0 0 42 28" fill="none" xmlns="http://www.w3.org/2000/svg">
<circle cx="28" cy="11" r="10" fill="#F1DFE2"/>
<path d="M18.9166 5.41666H12.25C11.7897 5.41666 11.4166 5.78975 11.4166 6.24999V12.9167C11.4166 13.3769 11.7897 13.75 12.25 13.75H18.9166C19.3769 13.75 19.75 13.3769 19.75 12.9167V6.24999C19.75 5.78975 19.3769 5.41666 18.9166 5.41666Z" fill="#AC9D9D"/>
<path d="M29.75 5.41666H23.0833C22.6231 5.41666 22.25 5.78975 22.25 6.24999V12.9167C22.25 13.3769 22.6231 13.75 23.0833 13.75H29.75C30.2102 13.75 30.5833 13.3769 30.5833 12.9167V6.24999C30.5833 5.78975 30.2102 5.41666 29.75 5.41666Z" fill="#D93954"/>
<path d="M18.9166 16.25H12.25C11.7897 16.25 11.4166 16.6231 11.4166 17.0833V23.75C11.4166 24.2102 11.7897 24.5833 12.25 24.5833H18.9166C19.3769 24.5833 19.75 24.2102 19.75 23.75V17.0833C19.75 16.6231 19.3769 16.25 18.9166 16.25Z" fill="#C5BEBE"/>
<path d="M29.75 16.25H23.0833C22.6231 16.25 22.25 16.6231 22.25 17.0833V23.75C22.25 24.2102 22.6231 24.5833 23.0833 24.5833H29.75C30.2102 24.5833 30.5833 24.2102 30.5833 23.75V17.0833C30.5833 16.6231 30.2102 16.25 29.75 16.25Z" fill="#AC9D9D"/>
</svg>
